<?xml version="1.0" encoding="UTF-8" standalone="no"?><svg xmlns="http://www.w3.org/2000/svg" xmlns:xlink="http://www.w3.org/1999/xlink" contentScriptType="application/ecmascript" contentStyleType="text/css" height="873px" preserveAspectRatio="none" style="width:522px;height:873px;" version="1.1" viewBox="0 0 522 873" width="522px" zoomAndPan="magnify"><defs><filter height="300%" id="f1tgulil1n6pww" width="300%" x="-1" y="-1"><feGaussianBlur result="blurOut" stdDeviation="2.0"/><feColorMatrix in="blurOut" result="blurOut2" type="matrix" values="0 0 0 0 0 0 0 0 0 0 0 0 0 0 0 0 0 0 .4 0"/><feOffset dx="4.0" dy="4.0" in="blurOut2" result="blurOut3"/><feBlend in="SourceGraphic" in2="blurOut3" mode="normal"/></filter></defs><g><!--MD5=[5d3822d29342fbd355d1b65ea3562ec9]
class GameView--><rect fill="#FEFECE" filter="url(#f1tgulil1n6pww)" height="163.2422" id="GameView" style="stroke: #A80036; stroke-width: 1.5;" width="221" x="156" y="8"/><ellipse cx="230.25" cy="24" fill="#ADD1B2" rx="11" ry="11" style="stroke: #A80036; stroke-width: 1.0;"/><path d="M233.2188,29.6406 Q232.6406,29.9375 232,30.0781 Q231.3594,30.2344 230.6563,30.2344 Q228.1563,30.2344 226.8281,28.5938 Q225.5156,26.9375 225.5156,23.8125 Q225.5156,20.6875 226.8281,19.0313 Q228.1563,17.375 230.6563,17.375 Q231.3594,17.375 232,17.5313 Q232.6563,17.6875 233.2188,17.9844 L233.2188,20.7031 Q232.5938,20.125 232,19.8594 Q231.4063,19.5781 230.7813,19.5781 Q229.4375,19.5781 228.75,20.6563 Q228.0625,21.7188 228.0625,23.8125 Q228.0625,25.9063 228.75,26.9844 Q229.4375,28.0469 230.7813,28.0469 Q231.4063,28.0469 232,27.7813 Q232.5938,27.5 233.2188,26.9219 L233.2188,29.6406 Z "/><text fill="#000000" font-family="sans-serif" font-size="12" lengthAdjust="spacingAndGlyphs" textLength="64" x="250.75" y="28.1543">GameView</text><line style="stroke: #A80036; stroke-width: 1.5;" x1="157" x2="376" y1="40" y2="40"/><rect fill="none" height="6" style="stroke: #C82930; stroke-width: 1.0;" width="6" x="164" y="48"/><text fill="#000000" font-family="sans-serif" font-size="11" lengthAdjust="spacingAndGlyphs" textLength="32" x="176" y="54.2104">game</text><rect fill="none" height="6" style="stroke: #C82930; stroke-width: 1.0;" width="6" x="164" y="60.8047"/><text fill="#000000" font-family="sans-serif" font-size="11" lengthAdjust="spacingAndGlyphs" textLength="49" x="176" y="67.0151">turnView</text><rect fill="none" height="6" style="stroke: #C82930; stroke-width: 1.0;" width="6" x="164" y="73.6094"/><text fill="#000000" font-family="sans-serif" font-size="11" lengthAdjust="spacingAndGlyphs" textLength="59" x="176" y="79.8198">boardView</text><line style="stroke: #A80036; stroke-width: 1.5;" x1="157" x2="376" y1="86.4141" y2="86.4141"/><text fill="#000000" font-family="sans-serif" font-size="11" lengthAdjust="spacingAndGlyphs" textLength="70" x="176" y="100.6245">askPlayers()</text><rect fill="#F24D5C" height="6" style="stroke: #C82930; stroke-width: 1.0;" width="6" x="164" y="107.2188"/><text fill="#000000" font-family="sans-serif" font-size="11" lengthAdjust="spacingAndGlyphs" textLength="173" x="176" y="113.4292">startNewGame(numOfPlayers)</text><rect fill="#F24D5C" height="6" style="stroke: #C82930; stroke-width: 1.0;" width="6" x="164" y="120.0234"/><text fill="#000000" font-family="sans-serif" font-size="11" lengthAdjust="spacingAndGlyphs" textLength="72" x="176" y="126.2339">play(column)</text><text fill="#000000" font-family="sans-serif" font-size="11" lengthAdjust="spacingAndGlyphs" textLength="154" x="176" y="139.0386">visitUserPlayer(userPlayer)</text><text fill="#000000" font-family="sans-serif" font-size="11" lengthAdjust="spacingAndGlyphs" textLength="195" x="176" y="151.8433">visitMachinePlayer(machinePlayer)</text><rect fill="#F24D5C" height="6" style="stroke: #C82930; stroke-width: 1.0;" width="6" x="164" y="158.4375"/><text fill="#000000" font-family="sans-serif" font-size="11" lengthAdjust="spacingAndGlyphs" textLength="125" x="176" y="164.6479">drawPlayAgainDialog()</text><!--MD5=[0f1adae5684a082996b24e2018afd4c9]
class TurnView--><rect fill="#FEFECE" filter="url(#f1tgulil1n6pww)" height="124.8281" id="TurnView" style="stroke: #A80036; stroke-width: 1.5;" width="207" x="6" y="237.5"/><ellipse cx="77.25" cy="253.5" fill="#ADD1B2" rx="11" ry="11" style="stroke: #A80036; stroke-width: 1.0;"/><path d="M80.2188,259.1406 Q79.6406,259.4375 79,259.5781 Q78.3594,259.7344 77.6563,259.7344 Q75.1563,259.7344 73.8281,258.0938 Q72.5156,256.4375 72.5156,253.3125 Q72.5156,250.1875 73.8281,248.5313 Q75.1563,246.875 77.6563,246.875 Q78.3594,246.875 79,247.0313 Q79.6563,247.1875 80.2188,247.4844 L80.2188,250.2031 Q79.5938,249.625 79,249.3594 Q78.4063,249.0781 77.7813,249.0781 Q76.4375,249.0781 75.75,250.1563 Q75.0625,251.2188 75.0625,253.3125 Q75.0625,255.4063 75.75,256.4844 Q76.4375,257.5469 77.7813,257.5469 Q78.4063,257.5469 79,257.2813 Q79.5938,257 80.2188,256.4219 L80.2188,259.1406 Z "/><text fill="#000000" font-family="sans-serif" font-size="12" lengthAdjust="spacingAndGlyphs" textLength="56" x="97.75" y="257.6543">TurnView</text><line style="stroke: #A80036; stroke-width: 1.5;" x1="7" x2="212" y1="269.5" y2="269.5"/><rect fill="none" height="6" style="stroke: #C82930; stroke-width: 1.0;" width="6" x="14" y="277.5"/><text fill="#000000" font-family="sans-serif" font-size="11" lengthAdjust="spacingAndGlyphs" textLength="23" x="26" y="283.7104">turn</text><line style="stroke: #A80036; stroke-width: 1.5;" x1="7" x2="212" y1="290.3047" y2="290.3047"/><text fill="#000000" font-family="sans-serif" font-size="11" lengthAdjust="spacingAndGlyphs" textLength="96" x="12" y="304.5151">constructor(turn)</text><text fill="#000000" font-family="sans-serif" font-size="11" lengthAdjust="spacingAndGlyphs" textLength="113" x="12" y="317.3198">drawTurnMessage()</text><text fill="#000000" font-family="sans-serif" font-size="11" lengthAdjust="spacingAndGlyphs" textLength="109" x="12" y="330.1245">dropToken(column)</text><text fill="#000000" font-family="sans-serif" font-size="11" lengthAdjust="spacingAndGlyphs" textLength="154" x="12" y="342.9292">visitUserPlayer(userPlayer)</text><text fill="#000000" font-family="sans-serif" font-size="11" lengthAdjust="spacingAndGlyphs" textLength="195" x="12" y="355.7339">visitMachinePlayer(machinePlayer)</text><!--MD5=[9b237e88d697a058bd530d6510c96c00]
class BoardView--><rect fill="#FEFECE" filter="url(#f1tgulil1n6pww)" height="137.6328" id="BoardView" style="stroke: #A80036; stroke-width: 1.5;" width="192" x="319.5" y="231"/><ellipse cx="378.75" cy="247" fill="#ADD1B2" rx="11" ry="11" style="stroke: #A80036; stroke-width: 1.0;"/><path d="M381.7188,252.6406 Q381.1406,252.9375 380.5,253.0781 Q379.8594,253.2344 379.1563,253.2344 Q376.6563,253.2344 375.3281,251.5938 Q374.0156,249.9375 374.0156,246.8125 Q374.0156,243.6875 375.3281,242.0313 Q376.6563,240.375 379.1563,240.375 Q379.8594,240.375 380.5,240.5313 Q381.1563,240.6875 381.7188,240.9844 L381.7188,243.7031 Q381.0938,243.125 380.5,242.8594 Q379.9063,242.5781 379.2813,242.5781 Q377.9375,242.5781 377.25,243.6563 Q376.5625,244.7188 376.5625,246.8125 Q376.5625,248.9063 377.25,249.9844 Q377.9375,251.0469 379.2813,251.0469 Q379.9063,251.0469 380.5,250.7813 Q381.0938,250.5 381.7188,249.9219 L381.7188,252.6406 Z "/><text fill="#000000" font-family="sans-serif" font-size="12" lengthAdjust="spacingAndGlyphs" textLength="65" x="399.25" y="251.1543">BoardView</text><line style="stroke: #A80036; stroke-width: 1.5;" x1="320.5" x2="510.5" y1="263" y2="263"/><rect fill="none" height="6" style="stroke: #C82930; stroke-width: 1.0;" width="6" x="327.5" y="271"/><text fill="#000000" font-family="sans-serif" font-size="11" lengthAdjust="spacingAndGlyphs" textLength="33" x="339.5" y="277.2104">board</text><line style="stroke: #A80036; stroke-width: 1.5;" x1="320.5" x2="510.5" y1="283.8047" y2="283.8047"/><text fill="#000000" font-family="sans-serif" font-size="11" lengthAdjust="spacingAndGlyphs" textLength="106" x="339.5" y="298.0151">constructor(board)</text><rect fill="#F24D5C" height="6" style="stroke: #C82930; stroke-width: 1.0;" width="6" x="327.5" y="304.6094"/><text fill="#000000" font-family="sans-serif" font-size="11" lengthAdjust="spacingAndGlyphs" textLength="104" x="339.5" y="310.8198">createTableHead()</text><rect fill="#F24D5C" height="6" style="stroke: #C82930; stroke-width: 1.0;" width="6" x="327.5" y="317.4141"/><text fill="#000000" font-family="sans-serif" font-size="11" lengthAdjust="spacingAndGlyphs" textLength="105" x="339.5" y="323.6245">createTableRows()</text><text fill="#000000" font-family="sans-serif" font-size="11" lengthAdjust="spacingAndGlyphs" textLength="166" x="339.5" y="336.4292">setControlsCallback(callback)</text><text fill="#000000" font-family="sans-serif" font-size="11" lengthAdjust="spacingAndGlyphs" textLength="80" x="339.5" y="349.2339">renderToken()</text><text fill="#000000" font-family="sans-serif" font-size="11" lengthAdjust="spacingAndGlyphs" textLength="82" x="339.5" y="362.0386">resultActions()</text><!--MD5=[2cb47ba637a0d19583e6199456f6ad0b]
class Player--><rect fill="#FEFECE" filter="url(#f1tgulil1n6pww)" height="48" id="Player" style="stroke: #A80036; stroke-width: 1.5;" width="70" x="156.5" y="706"/><ellipse cx="171.5" cy="722" fill="#A9DCDF" rx="11" ry="11" style="stroke: #A80036; stroke-width: 1.0;"/><path d="M171.6094,717.3438 L170.4531,722.4219 L172.7813,722.4219 L171.6094,717.3438 Z M170.125,715.1094 L173.1094,715.1094 L176.4688,727.5 L174.0156,727.5 L173.25,724.4375 L169.9688,724.4375 L169.2188,727.5 L166.7813,727.5 L170.125,715.1094 Z "/><text fill="#000000" font-family="sans-serif" font-size="12" font-style="italic" lengthAdjust="spacingAndGlyphs" textLength="38" x="185.5" y="726.1543">Player</text><line style="stroke: #A80036; stroke-width: 1.5;" x1="157.5" x2="225.5" y1="738" y2="738"/><line style="stroke: #A80036; stroke-width: 1.5;" x1="157.5" x2="225.5" y1="746" y2="746"/><!--MD5=[bed9476c332430e0fd8ad70c4aac2ffe]
class RandomMachinePlayer--><rect fill="#FEFECE" filter="url(#f1tgulil1n6pww)" height="48" id="RandomMachinePlayer" style="stroke: #A80036; stroke-width: 1.5;" width="173" x="20" y="814"/><ellipse cx="35" cy="830" fill="#ADD1B2" rx="11" ry="11" style="stroke: #A80036; stroke-width: 1.0;"/><path d="M37.9688,835.6406 Q37.3906,835.9375 36.75,836.0781 Q36.1094,836.2344 35.4063,836.2344 Q32.9063,836.2344 31.5781,834.5938 Q30.2656,832.9375 30.2656,829.8125 Q30.2656,826.6875 31.5781,825.0313 Q32.9063,823.375 35.4063,823.375 Q36.1094,823.375 36.75,823.5313 Q37.4063,823.6875 37.9688,823.9844 L37.9688,826.7031 Q37.3438,826.125 36.75,825.8594 Q36.1563,825.5781 35.5313,825.5781 Q34.1875,825.5781 33.5,826.6563 Q32.8125,827.7188 32.8125,829.8125 Q32.8125,831.9063 33.5,832.9844 Q34.1875,834.0469 35.5313,834.0469 Q36.1563,834.0469 36.75,833.7813 Q37.3438,833.5 37.9688,832.9219 L37.9688,835.6406 Z "/><text fill="#000000" font-family="sans-serif" font-size="12" lengthAdjust="spacingAndGlyphs" textLength="141" x="49" y="834.1543">RandomMachinePlayer</text><line style="stroke: #A80036; stroke-width: 1.5;" x1="21" x2="192" y1="846" y2="846"/><line style="stroke: #A80036; stroke-width: 1.5;" x1="21" x2="192" y1="854" y2="854"/><!--MD5=[d159557bab43e1f13b9627fe22d6ac69]
class UserPlayer--><rect fill="#FEFECE" filter="url(#f1tgulil1n6pww)" height="48" id="UserPlayer" style="stroke: #A80036; stroke-width: 1.5;" width="99" x="228" y="814"/><ellipse cx="243" cy="830" fill="#ADD1B2" rx="11" ry="11" style="stroke: #A80036; stroke-width: 1.0;"/><path d="M245.9688,835.6406 Q245.3906,835.9375 244.75,836.0781 Q244.1094,836.2344 243.4063,836.2344 Q240.9063,836.2344 239.5781,834.5938 Q238.2656,832.9375 238.2656,829.8125 Q238.2656,826.6875 239.5781,825.0313 Q240.9063,823.375 243.4063,823.375 Q244.1094,823.375 244.75,823.5313 Q245.4063,823.6875 245.9688,823.9844 L245.9688,826.7031 Q245.3438,826.125 244.75,825.8594 Q244.1563,825.5781 243.5313,825.5781 Q242.1875,825.5781 241.5,826.6563 Q240.8125,827.7188 240.8125,829.8125 Q240.8125,831.9063 241.5,832.9844 Q242.1875,834.0469 243.5313,834.0469 Q244.1563,834.0469 244.75,833.7813 Q245.3438,833.5 245.9688,832.9219 L245.9688,835.6406 Z "/><text fill="#000000" font-family="sans-serif" font-size="12" lengthAdjust="spacingAndGlyphs" textLength="67" x="257" y="834.1543">UserPlayer</text><line style="stroke: #A80036; stroke-width: 1.5;" x1="229" x2="326" y1="846" y2="846"/><line style="stroke: #A80036; stroke-width: 1.5;" x1="229" x2="326" y1="854" y2="854"/><!--MD5=[b6dcce5e5ef3c84b0b048d11301373dd]
class Game--><rect fill="#FEFECE" filter="url(#f1tgulil1n6pww)" height="48" id="Game" style="stroke: #A80036; stroke-width: 1.5;" width="68" x="232.5" y="429"/><ellipse cx="247.5" cy="445" fill="#ADD1B2" rx="11" ry="11" style="stroke: #A80036; stroke-width: 1.0;"/><path d="M250.4688,450.6406 Q249.8906,450.9375 249.25,451.0781 Q248.6094,451.2344 247.9063,451.2344 Q245.4063,451.2344 244.0781,449.5938 Q242.7656,447.9375 242.7656,444.8125 Q242.7656,441.6875 244.0781,440.0313 Q245.4063,438.375 247.9063,438.375 Q248.6094,438.375 249.25,438.5313 Q249.9063,438.6875 250.4688,438.9844 L250.4688,441.7031 Q249.8438,441.125 249.25,440.8594 Q248.6563,440.5781 248.0313,440.5781 Q246.6875,440.5781 246,441.6563 Q245.3125,442.7188 245.3125,444.8125 Q245.3125,446.9063 246,447.9844 Q246.6875,449.0469 248.0313,449.0469 Q248.6563,449.0469 249.25,448.7813 Q249.8438,448.5 250.4688,447.9219 L250.4688,450.6406 Z "/><text fill="#000000" font-family="sans-serif" font-size="12" lengthAdjust="spacingAndGlyphs" textLength="36" x="261.5" y="449.1543">Game</text><line style="stroke: #A80036; stroke-width: 1.5;" x1="233.5" x2="299.5" y1="461" y2="461"/><line style="stroke: #A80036; stroke-width: 1.5;" x1="233.5" x2="299.5" y1="469" y2="469"/><!--MD5=[9563755d011c5cec7ec66dc53565a59e]
class Board--><rect fill="#FEFECE" filter="url(#f1tgulil1n6pww)" height="48" id="Board" style="stroke: #A80036; stroke-width: 1.5;" width="69" x="303" y="537"/><ellipse cx="318" cy="553" fill="#ADD1B2" rx="11" ry="11" style="stroke: #A80036; stroke-width: 1.0;"/><path d="M320.9688,558.6406 Q320.3906,558.9375 319.75,559.0781 Q319.1094,559.2344 318.4063,559.2344 Q315.9063,559.2344 314.5781,557.5938 Q313.2656,555.9375 313.2656,552.8125 Q313.2656,549.6875 314.5781,548.0313 Q315.9063,546.375 318.4063,546.375 Q319.1094,546.375 319.75,546.5313 Q320.4063,546.6875 320.9688,546.9844 L320.9688,549.7031 Q320.3438,549.125 319.75,548.8594 Q319.1563,548.5781 318.5313,548.5781 Q317.1875,548.5781 316.5,549.6563 Q315.8125,550.7188 315.8125,552.8125 Q315.8125,554.9063 316.5,555.9844 Q317.1875,557.0469 318.5313,557.0469 Q319.1563,557.0469 319.75,556.7813 Q320.3438,556.5 320.9688,555.9219 L320.9688,558.6406 Z "/><text fill="#000000" font-family="sans-serif" font-size="12" lengthAdjust="spacingAndGlyphs" textLength="37" x="332" y="557.1543">Board</text><line style="stroke: #A80036; stroke-width: 1.5;" x1="304" x2="371" y1="569" y2="569"/><line style="stroke: #A80036; stroke-width: 1.5;" x1="304" x2="371" y1="577" y2="577"/><!--MD5=[dd91eae41778c45e12552e5329e240e8]
class Turn--><rect fill="#FEFECE" filter="url(#f1tgulil1n6pww)" height="48" id="Turn" style="stroke: #A80036; stroke-width: 1.5;" width="60" x="161.5" y="537"/><ellipse cx="176.5" cy="553" fill="#ADD1B2" rx="11" ry="11" style="stroke: #A80036; stroke-width: 1.0;"/><path d="M179.4688,558.6406 Q178.8906,558.9375 178.25,559.0781 Q177.6094,559.2344 176.9063,559.2344 Q174.4063,559.2344 173.0781,557.5938 Q171.7656,555.9375 171.7656,552.8125 Q171.7656,549.6875 173.0781,548.0313 Q174.4063,546.375 176.9063,546.375 Q177.6094,546.375 178.25,546.5313 Q178.9063,546.6875 179.4688,546.9844 L179.4688,549.7031 Q178.8438,549.125 178.25,548.8594 Q177.6563,548.5781 177.0313,548.5781 Q175.6875,548.5781 175,549.6563 Q174.3125,550.7188 174.3125,552.8125 Q174.3125,554.9063 175,555.9844 Q175.6875,557.0469 177.0313,557.0469 Q177.6563,557.0469 178.25,556.7813 Q178.8438,556.5 179.4688,555.9219 L179.4688,558.6406 Z "/><text fill="#000000" font-family="sans-serif" font-size="12" lengthAdjust="spacingAndGlyphs" textLength="28" x="190.5" y="557.1543">Turn</text><line style="stroke: #A80036; stroke-width: 1.5;" x1="162.5" x2="220.5" y1="569" y2="569"/><line style="stroke: #A80036; stroke-width: 1.5;" x1="162.5" x2="220.5" y1="577" y2="577"/><!--MD5=[ca04c0eda4482e2f74e8c9b82fcb79bf]
link GameView to Game--><path d="M266.5,183.18 C266.5,183.18 266.5,361.93 266.5,415.58 " fill="none" id="GameView-Game" style="stroke: #A80036; stroke-width: 1.0;"/><polygon fill="#A80036" points="266.5,428.75,270.5,419.75,266.5,423.75,262.5,419.75,266.5,428.75" style="stroke: #A80036; stroke-width: 1.0;"/><line style="stroke: #A80036; stroke-width: 1.0;" x1="266.5" x2="266.5" y1="423.75" y2="415.75"/><polygon fill="#A80036" points="266.5,171.18,262.5,177.18,266.5,183.18,270.5,177.18,266.5,171.18" style="stroke: #A80036; stroke-width: 1.0;"/><!--MD5=[7df4e8fc8ef15cc8ca9effbcc2622283]
link GameView to TurnView--><path d="M205.8,171.11 C190.4,191.57 174.03,213.3 159.24,232.94 " fill="none" id="GameView-&gt;TurnView" style="stroke: #A80036; stroke-width: 1.0;"/><polygon fill="#A80036" points="155.91,237.36,164.5209,232.5796,158.9191,233.3669,158.1319,227.765,155.91,237.36" style="stroke: #A80036; stroke-width: 1.0;"/><!--MD5=[c2d12ea21a8ed9d7b07c5ed2223bb09d]
link GameView to BoardView--><path d="M324.11,171.11 C337.09,189.28 350.8,208.46 363.54,226.29 " fill="none" id="GameView-&gt;BoardView" style="stroke: #A80036; stroke-width: 1.0;"/><polygon fill="#A80036" points="366.75,230.79,364.7642,221.1434,363.8398,226.7242,358.259,225.7998,366.75,230.79" style="stroke: #A80036; stroke-width: 1.0;"/><!--MD5=[87ac28f7ff846e55e34c2c863c6ff220]
link BoardView to Board--><path d="M391.5413,380.5377 C391.5413,380.5377 359.39,487.32 348.36,523.95 " fill="none" id="BoardView-Board" style="stroke: #A80036; stroke-width: 1.0;"/><polygon fill="#A80036" points="344.46,536.88,350.8806,529.4117,345.8988,532.0915,343.2189,527.1096,344.46,536.88" style="stroke: #A80036; stroke-width: 1.0;"/><line style="stroke: #A80036; stroke-width: 1.0;" x1="345.8988" x2="348.21" y1="532.0915" y2="524.43"/><polygon fill="#A80036" points="395.01,369.05,389.4464,373.6376,391.5413,380.5377,397.1049,375.9501,395.01,369.05" style="stroke: #A80036; stroke-width: 1.0;"/><!--MD5=[b90c15517c5612720f6d3b5735a27f0e]
link TurnView to Turn--><path d="M132.6523,374.1534 C132.6523,374.1534 168.12,486.15 180.24,524.43 " fill="none" id="TurnView-Turn" style="stroke: #A80036; stroke-width: 1.0;"/><polygon fill="#A80036" points="184.19,536.92,185.2952,527.1334,182.6849,532.1519,177.6663,529.5416,184.19,536.92" style="stroke: #A80036; stroke-width: 1.0;"/><line style="stroke: #A80036; stroke-width: 1.0;" x1="182.6849" x2="180.27" y1="532.1519" y2="524.53"/><polygon fill="#A80036" points="129.04,362.71,127.0317,369.6358,132.6523,374.1534,134.6606,367.2276,129.04,362.71" style="stroke: #A80036; stroke-width: 1.0;"/><!--MD5=[d81713d91ad05be3b975338c4816ee0b]
link Turn to Player--><path d="M191.5,597.22 C191.5,597.22 191.5,664.82 191.5,692.8 " fill="none" id="Turn-Player" style="stroke: #A80036; stroke-width: 1.0;"/><polygon fill="#A80036" points="191.5,705.98,195.5,696.98,191.5,700.98,187.5,696.98,191.5,705.98" style="stroke: #A80036; stroke-width: 1.0;"/><line style="stroke: #A80036; stroke-width: 1.0;" x1="191.5" x2="191.5" y1="700.98" y2="692.98"/><polygon fill="#A80036" points="191.5,585.22,187.5,591.22,191.5,597.22,195.5,591.22,191.5,585.22" style="stroke: #A80036; stroke-width: 1.0;"/><text fill="#000000" font-family="sans-serif" font-size="13" lengthAdjust="spacingAndGlyphs" textLength="8" x="182.475" y="694.9869">2</text><!--MD5=[b9f1e39ad85d50fe6f3a071a4341c320]
link Game to Turn--><path d="M243.2964,486.7941 C243.2964,486.7941 224.14,513.87 215.53,526.03 " fill="none" id="Game-Turn" style="stroke: #A80036; stroke-width: 1.0;"/><polygon fill="#A80036" points="208,536.68,216.4636,531.6434,210.8879,532.5984,209.933,527.0227,208,536.68" style="stroke: #A80036; stroke-width: 1.0;"/><line style="stroke: #A80036; stroke-width: 1.0;" x1="210.8879" x2="215.51" y1="532.5984" y2="526.065"/><polygon fill="#A80036" points="250.23,477,243.4985,479.5858,243.2964,486.7941,250.0279,484.2083,250.23,477" style="stroke: #A80036; stroke-width: 1.0;"/><!--MD5=[15c8f9ca3aac13d865864b4eb5314ef1]
link Game to Board--><path d="M288.5847,486.9724 C288.5847,486.9724 306.42,513.59 314.5,525.66 " fill="none" id="Game-Board" style="stroke: #A80036; stroke-width: 1.0;"/><polygon fill="#A80036" points="321.88,536.68,320.1981,526.9758,319.0989,532.5248,313.5499,531.4256,321.88,536.68" style="stroke: #A80036; stroke-width: 1.0;"/><line style="stroke: #A80036; stroke-width: 1.0;" x1="319.0989" x2="314.64" y1="532.5248" y2="525.88"/><polygon fill="#A80036" points="281.91,477,281.9232,484.2111,288.5847,486.9724,288.5715,479.7613,281.91,477" style="stroke: #A80036; stroke-width: 1.0;"/><!--MD5=[83e73cc634b6a0fa1d7bbb56c08baf04]
reverse link Player to RandomMachinePlayer--><path d="M160.47,769.7 C148.64,784.45 135.54,800.79 125.2,813.68 " fill="none" id="Player&lt;-RandomMachinePlayer" style="stroke: #A80036; stroke-width: 1.0;"/><polygon fill="none" points="155.08,765.22,173.06,754,166.01,773.98,155.08,765.22" style="stroke: #A80036; stroke-width: 1.0;"/><!--MD5=[5f3eff46017ea40d2ca7f35522a8d7fb]
reverse link Player to UserPlayer--><path d="M222.9,769.7 C234.86,784.45 248.12,800.79 258.58,813.68 " fill="none" id="Player&lt;-UserPlayer" style="stroke: #A80036; stroke-width: 1.0;"/><polygon fill="none" points="217.33,773.94,210.16,754,228.2,765.12,217.33,773.94" style="stroke: #A80036; stroke-width: 1.0;"/><!--MD5=[22a74afb770f07d9b3e450d0fea639a8]
@startuml
class GameView{
-game
-turnView
-boardView
askPlayers()
-startNewGame(numOfPlayers)
-play(column)
visitUserPlayer(userPlayer)
visitMachinePlayer(machinePlayer)
-drawPlayAgainDialog()
}
class TurnView{
-turn
constructor(turn)
drawTurnMessage()
dropToken(column)
visitUserPlayer(userPlayer)
visitMachinePlayer(machinePlayer)
}
class BoardView{
-board
constructor(board)
-createTableHead()
-createTableRows()
setControlsCallback(callback)
renderToken()
resultActions()
}

Abstract    class Player
class RandomMachinePlayer
class UserPlayer

GameView *- - -> Game
GameView -> TurnView
GameView -> BoardView
BoardView *- -> Board
TurnView *- -> Turn
Turn *- - -> "2" Player
Game *- -> Turn
Game *- -> Board
Player <|- - RandomMachinePlayer
Player <|- - UserPlayer

@enduml

PlantUML version 1.2020.02(Sun Mar 01 06:22:07 VET 2020)
(GPL source distribution)
Java Runtime: OpenJDK Runtime Environment
JVM: OpenJDK 64-Bit Server VM
Java Version: 11.0.17+8-post-Ubuntu-1ubuntu222.04
Operating System: Linux
Default Encoding: UTF-8
Language: en
Country: US
--></g></svg>