<?xml version="1.0" encoding="UTF-8" standalone="no"?><svg xmlns="http://www.w3.org/2000/svg" xmlns:xlink="http://www.w3.org/1999/xlink" contentScriptType="application/ecmascript" contentStyleType="text/css" height="670px" preserveAspectRatio="none" style="width:1252px;height:670px;" version="1.1" viewBox="0 0 1252 670" width="1252px" zoomAndPan="magnify"><defs><filter height="300%" id="f1kyxt4uypz2j9" width="300%" x="-1" y="-1"><feGaussianBlur result="blurOut" stdDeviation="2.0"/><feColorMatrix in="blurOut" result="blurOut2" type="matrix" values="0 0 0 0 0 0 0 0 0 0 0 0 0 0 0 0 0 0 .4 0"/><feOffset dx="4.0" dy="4.0" in="blurOut2" result="blurOut3"/><feBlend in="SourceGraphic" in2="blurOut3" mode="normal"/></filter></defs><g><!--MD5=[a60570e4b426f702ccbb0d459e3b9417]
cluster models--><polygon fill="#FFFFFF" filter="url(#f1kyxt4uypz2j9)" points="561,170.5,624,170.5,631,192.7969,1005,192.7969,1005,658,561,658,561,170.5" style="stroke: #000000; stroke-width: 1.5;"/><line style="stroke: #000000; stroke-width: 1.5;" x1="561" x2="631" y1="192.7969" y2="192.7969"/><text fill="#000000" font-family="sans-serif" font-size="14" font-weight="bold" lengthAdjust="spacingAndGlyphs" textLength="57" x="565" y="185.4951">models</text><!--MD5=[b6dcce5e5ef3c84b0b048d11301373dd]
class Game--><rect fill="#FEFECE" filter="url(#f1kyxt4uypz2j9)" height="48" id="Game" style="stroke: #A80036; stroke-width: 1.5;" width="68" x="583" y="205.5"/><ellipse cx="598" cy="221.5" fill="#ADD1B2" rx="11" ry="11" style="stroke: #A80036; stroke-width: 1.0;"/><path d="M600.9688,227.1406 Q600.3906,227.4375 599.75,227.5781 Q599.1094,227.7344 598.4063,227.7344 Q595.9063,227.7344 594.5781,226.0938 Q593.2656,224.4375 593.2656,221.3125 Q593.2656,218.1875 594.5781,216.5313 Q595.9063,214.875 598.4063,214.875 Q599.1094,214.875 599.75,215.0313 Q600.4063,215.1875 600.9688,215.4844 L600.9688,218.2031 Q600.3438,217.625 599.75,217.3594 Q599.1563,217.0781 598.5313,217.0781 Q597.1875,217.0781 596.5,218.1563 Q595.8125,219.2188 595.8125,221.3125 Q595.8125,223.4063 596.5,224.4844 Q597.1875,225.5469 598.5313,225.5469 Q599.1563,225.5469 599.75,225.2813 Q600.3438,225 600.9688,224.4219 L600.9688,227.1406 Z "/><text fill="#000000" font-family="sans-serif" font-size="12" lengthAdjust="spacingAndGlyphs" textLength="36" x="612" y="225.6543">Game</text><line style="stroke: #A80036; stroke-width: 1.5;" x1="584" x2="650" y1="237.5" y2="237.5"/><line style="stroke: #A80036; stroke-width: 1.5;" x1="584" x2="650" y1="245.5" y2="245.5"/><!--MD5=[dd91eae41778c45e12552e5329e240e8]
class Turn--><rect fill="#FEFECE" filter="url(#f1kyxt4uypz2j9)" height="48" id="Turn" style="stroke: #A80036; stroke-width: 1.5;" width="60" x="701" y="365"/><ellipse cx="716" cy="381" fill="#ADD1B2" rx="11" ry="11" style="stroke: #A80036; stroke-width: 1.0;"/><path d="M718.9688,386.6406 Q718.3906,386.9375 717.75,387.0781 Q717.1094,387.2344 716.4063,387.2344 Q713.9063,387.2344 712.5781,385.5938 Q711.2656,383.9375 711.2656,380.8125 Q711.2656,377.6875 712.5781,376.0313 Q713.9063,374.375 716.4063,374.375 Q717.1094,374.375 717.75,374.5313 Q718.4063,374.6875 718.9688,374.9844 L718.9688,377.7031 Q718.3438,377.125 717.75,376.8594 Q717.1563,376.5781 716.5313,376.5781 Q715.1875,376.5781 714.5,377.6563 Q713.8125,378.7188 713.8125,380.8125 Q713.8125,382.9063 714.5,383.9844 Q715.1875,385.0469 716.5313,385.0469 Q717.1563,385.0469 717.75,384.7813 Q718.3438,384.5 718.9688,383.9219 L718.9688,386.6406 Z "/><text fill="#000000" font-family="sans-serif" font-size="12" lengthAdjust="spacingAndGlyphs" textLength="28" x="730" y="385.1543">Turn</text><line style="stroke: #A80036; stroke-width: 1.5;" x1="702" x2="760" y1="397" y2="397"/><line style="stroke: #A80036; stroke-width: 1.5;" x1="702" x2="760" y1="405" y2="405"/><!--MD5=[2cb47ba637a0d19583e6199456f6ad0b]
class Player--><rect fill="#FEFECE" filter="url(#f1kyxt4uypz2j9)" height="48" id="Player" style="stroke: #A80036; stroke-width: 1.5;" width="70" x="696" y="486"/><ellipse cx="711" cy="502" fill="#A9DCDF" rx="11" ry="11" style="stroke: #A80036; stroke-width: 1.0;"/><path d="M711.1094,497.3438 L709.9531,502.4219 L712.2813,502.4219 L711.1094,497.3438 Z M709.625,495.1094 L712.6094,495.1094 L715.9688,507.5 L713.5156,507.5 L712.75,504.4375 L709.4688,504.4375 L708.7188,507.5 L706.2813,507.5 L709.625,495.1094 Z "/><text fill="#000000" font-family="sans-serif" font-size="12" font-style="italic" lengthAdjust="spacingAndGlyphs" textLength="38" x="725" y="506.1543">Player</text><line style="stroke: #A80036; stroke-width: 1.5;" x1="697" x2="765" y1="518" y2="518"/><line style="stroke: #A80036; stroke-width: 1.5;" x1="697" x2="765" y1="526" y2="526"/><!--MD5=[bed9476c332430e0fd8ad70c4aac2ffe]
class RandomMachinePlayer--><rect fill="#FEFECE" filter="url(#f1kyxt4uypz2j9)" height="48" id="RandomMachinePlayer" style="stroke: #A80036; stroke-width: 1.5;" width="173" x="815.5" y="594"/><ellipse cx="830.5" cy="610" fill="#ADD1B2" rx="11" ry="11" style="stroke: #A80036; stroke-width: 1.0;"/><path d="M833.4688,615.6406 Q832.8906,615.9375 832.25,616.0781 Q831.6094,616.2344 830.9063,616.2344 Q828.4063,616.2344 827.0781,614.5938 Q825.7656,612.9375 825.7656,609.8125 Q825.7656,606.6875 827.0781,605.0313 Q828.4063,603.375 830.9063,603.375 Q831.6094,603.375 832.25,603.5313 Q832.9063,603.6875 833.4688,603.9844 L833.4688,606.7031 Q832.8438,606.125 832.25,605.8594 Q831.6563,605.5781 831.0313,605.5781 Q829.6875,605.5781 829,606.6563 Q828.3125,607.7188 828.3125,609.8125 Q828.3125,611.9063 829,612.9844 Q829.6875,614.0469 831.0313,614.0469 Q831.6563,614.0469 832.25,613.7813 Q832.8438,613.5 833.4688,612.9219 L833.4688,615.6406 Z "/><text fill="#000000" font-family="sans-serif" font-size="12" lengthAdjust="spacingAndGlyphs" textLength="141" x="844.5" y="614.1543">RandomMachinePlayer</text><line style="stroke: #A80036; stroke-width: 1.5;" x1="816.5" x2="987.5" y1="626" y2="626"/><line style="stroke: #A80036; stroke-width: 1.5;" x1="816.5" x2="987.5" y1="634" y2="634"/><!--MD5=[d159557bab43e1f13b9627fe22d6ac69]
class UserPlayer--><rect fill="#FEFECE" filter="url(#f1kyxt4uypz2j9)" height="48" id="UserPlayer" style="stroke: #A80036; stroke-width: 1.5;" width="99" x="681.5" y="594"/><ellipse cx="696.5" cy="610" fill="#ADD1B2" rx="11" ry="11" style="stroke: #A80036; stroke-width: 1.0;"/><path d="M699.4688,615.6406 Q698.8906,615.9375 698.25,616.0781 Q697.6094,616.2344 696.9063,616.2344 Q694.4063,616.2344 693.0781,614.5938 Q691.7656,612.9375 691.7656,609.8125 Q691.7656,606.6875 693.0781,605.0313 Q694.4063,603.375 696.9063,603.375 Q697.6094,603.375 698.25,603.5313 Q698.9063,603.6875 699.4688,603.9844 L699.4688,606.7031 Q698.8438,606.125 698.25,605.8594 Q697.6563,605.5781 697.0313,605.5781 Q695.6875,605.5781 695,606.6563 Q694.3125,607.7188 694.3125,609.8125 Q694.3125,611.9063 695,612.9844 Q695.6875,614.0469 697.0313,614.0469 Q697.6563,614.0469 698.25,613.7813 Q698.8438,613.5 699.4688,612.9219 L699.4688,615.6406 Z "/><text fill="#000000" font-family="sans-serif" font-size="12" lengthAdjust="spacingAndGlyphs" textLength="67" x="710.5" y="614.1543">UserPlayer</text><line style="stroke: #A80036; stroke-width: 1.5;" x1="682.5" x2="779.5" y1="626" y2="626"/><line style="stroke: #A80036; stroke-width: 1.5;" x1="682.5" x2="779.5" y1="634" y2="634"/><!--MD5=[9563755d011c5cec7ec66dc53565a59e]
class Board--><rect fill="#FEFECE" filter="url(#f1kyxt4uypz2j9)" height="48" id="Board" style="stroke: #A80036; stroke-width: 1.5;" width="69" x="577.5" y="594"/><ellipse cx="592.5" cy="610" fill="#ADD1B2" rx="11" ry="11" style="stroke: #A80036; stroke-width: 1.0;"/><path d="M595.4688,615.6406 Q594.8906,615.9375 594.25,616.0781 Q593.6094,616.2344 592.9063,616.2344 Q590.4063,616.2344 589.0781,614.5938 Q587.7656,612.9375 587.7656,609.8125 Q587.7656,606.6875 589.0781,605.0313 Q590.4063,603.375 592.9063,603.375 Q593.6094,603.375 594.25,603.5313 Q594.9063,603.6875 595.4688,603.9844 L595.4688,606.7031 Q594.8438,606.125 594.25,605.8594 Q593.6563,605.5781 593.0313,605.5781 Q591.6875,605.5781 591,606.6563 Q590.3125,607.7188 590.3125,609.8125 Q590.3125,611.9063 591,612.9844 Q591.6875,614.0469 593.0313,614.0469 Q593.6563,614.0469 594.25,613.7813 Q594.8438,613.5 595.4688,612.9219 L595.4688,615.6406 Z "/><text fill="#000000" font-family="sans-serif" font-size="12" lengthAdjust="spacingAndGlyphs" textLength="37" x="606.5" y="614.1543">Board</text><line style="stroke: #A80036; stroke-width: 1.5;" x1="578.5" x2="645.5" y1="626" y2="626"/><line style="stroke: #A80036; stroke-width: 1.5;" x1="578.5" x2="645.5" y1="634" y2="634"/><!--MD5=[5d3822d29342fbd355d1b65ea3562ec9]
class GameView--><rect fill="#FEFECE" filter="url(#f1kyxt4uypz2j9)" height="99.2188" id="GameView" style="stroke: #A80036; stroke-width: 1.5;" width="138" x="379" y="8"/><ellipse cx="412.9" cy="24" fill="#ADD1B2" rx="11" ry="11" style="stroke: #A80036; stroke-width: 1.0;"/><path d="M415.8688,29.6406 Q415.2906,29.9375 414.65,30.0781 Q414.0094,30.2344 413.3063,30.2344 Q410.8063,30.2344 409.4781,28.5938 Q408.1656,26.9375 408.1656,23.8125 Q408.1656,20.6875 409.4781,19.0313 Q410.8063,17.375 413.3063,17.375 Q414.0094,17.375 414.65,17.5313 Q415.3063,17.6875 415.8688,17.9844 L415.8688,20.7031 Q415.2438,20.125 414.65,19.8594 Q414.0563,19.5781 413.4313,19.5781 Q412.0875,19.5781 411.4,20.6563 Q410.7125,21.7188 410.7125,23.8125 Q410.7125,25.9063 411.4,26.9844 Q412.0875,28.0469 413.4313,28.0469 Q414.0563,28.0469 414.65,27.7813 Q415.2438,27.5 415.8688,26.9219 L415.8688,29.6406 Z "/><text fill="#000000" font-family="sans-serif" font-size="12" lengthAdjust="spacingAndGlyphs" textLength="64" x="431.1" y="28.1543">GameView</text><line style="stroke: #A80036; stroke-width: 1.5;" x1="380" x2="516" y1="40" y2="40"/><line style="stroke: #A80036; stroke-width: 1.5;" x1="380" x2="516" y1="48" y2="48"/><polygon fill="#FFFF44" points="390,54,394,58,390,62,386,58" style="stroke: #B38D22; stroke-width: 1.0;"/><text fill="#000000" font-family="sans-serif" font-size="11" lengthAdjust="spacingAndGlyphs" textLength="25" x="399" y="62.2104">init()</text><polygon fill="#FFFF44" points="390,66.8047,394,70.8047,390,74.8047,386,70.8047" style="stroke: #B38D22; stroke-width: 1.0;"/><text fill="#000000" font-family="sans-serif" font-size="11" lengthAdjust="spacingAndGlyphs" textLength="103" x="399" y="75.0151">onUpdate(column)</text><text fill="#000000" font-family="sans-serif" font-size="11" lengthAdjust="spacingAndGlyphs" textLength="93" x="399" y="87.8198">visitUserPlayer()</text><text fill="#000000" font-family="sans-serif" font-size="11" lengthAdjust="spacingAndGlyphs" textLength="112" x="399" y="100.6245">visitMachinePlayer()</text><!--MD5=[1300e25f32aebab0be618a4b9fe276da]
class NumPlayersDialog--><rect fill="#FEFECE" filter="url(#f1kyxt4uypz2j9)" height="60.8047" id="NumPlayersDialog" style="stroke: #A80036; stroke-width: 1.5;" width="144" x="171" y="199"/><ellipse cx="186" cy="215" fill="#ADD1B2" rx="11" ry="11" style="stroke: #A80036; stroke-width: 1.0;"/><path d="M188.9688,220.6406 Q188.3906,220.9375 187.75,221.0781 Q187.1094,221.2344 186.4063,221.2344 Q183.9063,221.2344 182.5781,219.5938 Q181.2656,217.9375 181.2656,214.8125 Q181.2656,211.6875 182.5781,210.0313 Q183.9063,208.375 186.4063,208.375 Q187.1094,208.375 187.75,208.5313 Q188.4063,208.6875 188.9688,208.9844 L188.9688,211.7031 Q188.3438,211.125 187.75,210.8594 Q187.1563,210.5781 186.5313,210.5781 Q185.1875,210.5781 184.5,211.6563 Q183.8125,212.7188 183.8125,214.8125 Q183.8125,216.9063 184.5,217.9844 Q185.1875,219.0469 186.5313,219.0469 Q187.1563,219.0469 187.75,218.7813 Q188.3438,218.5 188.9688,217.9219 L188.9688,220.6406 Z "/><text fill="#000000" font-family="sans-serif" font-size="12" lengthAdjust="spacingAndGlyphs" textLength="112" x="200" y="219.1543">NumPlayersDialog</text><line style="stroke: #A80036; stroke-width: 1.5;" x1="172" x2="314" y1="231" y2="231"/><line style="stroke: #A80036; stroke-width: 1.5;" x1="172" x2="314" y1="239" y2="239"/><text fill="#000000" font-family="sans-serif" font-size="11" lengthAdjust="spacingAndGlyphs" textLength="118" x="177" y="253.2104">constructor(callback)</text><!--MD5=[96d34c609f3a35611fab0ba2ac4bf14f]
class ResumeDialog--><rect fill="#FEFECE" filter="url(#f1kyxt4uypz2j9)" height="60.8047" id="ResumeDialog" style="stroke: #A80036; stroke-width: 1.5;" width="130" x="6" y="199"/><ellipse cx="25.05" cy="215" fill="#ADD1B2" rx="11" ry="11" style="stroke: #A80036; stroke-width: 1.0;"/><path d="M28.0188,220.6406 Q27.4406,220.9375 26.8,221.0781 Q26.1594,221.2344 25.4563,221.2344 Q22.9563,221.2344 21.6281,219.5938 Q20.3156,217.9375 20.3156,214.8125 Q20.3156,211.6875 21.6281,210.0313 Q22.9563,208.375 25.4563,208.375 Q26.1594,208.375 26.8,208.5313 Q27.4563,208.6875 28.0188,208.9844 L28.0188,211.7031 Q27.3938,211.125 26.8,210.8594 Q26.2063,210.5781 25.5813,210.5781 Q24.2375,210.5781 23.55,211.6563 Q22.8625,212.7188 22.8625,214.8125 Q22.8625,216.9063 23.55,217.9844 Q24.2375,219.0469 25.5813,219.0469 Q26.2063,219.0469 26.8,218.7813 Q27.3938,218.5 28.0188,217.9219 L28.0188,220.6406 Z "/><text fill="#000000" font-family="sans-serif" font-size="12" lengthAdjust="spacingAndGlyphs" textLength="89" x="39.95" y="219.1543">ResumeDialog</text><line style="stroke: #A80036; stroke-width: 1.5;" x1="7" x2="135" y1="231" y2="231"/><line style="stroke: #A80036; stroke-width: 1.5;" x1="7" x2="135" y1="239" y2="239"/><text fill="#000000" font-family="sans-serif" font-size="11" lengthAdjust="spacingAndGlyphs" textLength="118" x="12" y="253.2104">constructor(callback)</text><!--MD5=[81f93d19c3c2c34e5abb148ec948c897]
class ButtonsDialog--><rect fill="#FEFECE" filter="url(#f1kyxt4uypz2j9)" height="73.6094" id="ButtonsDialog" style="stroke: #A80036; stroke-width: 1.5;" width="120" x="97" y="20.5"/><ellipse cx="112" cy="36.5" fill="#ADD1B2" rx="11" ry="11" style="stroke: #A80036; stroke-width: 1.0;"/><path d="M114.9688,42.1406 Q114.3906,42.4375 113.75,42.5781 Q113.1094,42.7344 112.4063,42.7344 Q109.9063,42.7344 108.5781,41.0938 Q107.2656,39.4375 107.2656,36.3125 Q107.2656,33.1875 108.5781,31.5313 Q109.9063,29.875 112.4063,29.875 Q113.1094,29.875 113.75,30.0313 Q114.4063,30.1875 114.9688,30.4844 L114.9688,33.2031 Q114.3438,32.625 113.75,32.3594 Q113.1563,32.0781 112.5313,32.0781 Q111.1875,32.0781 110.5,33.1563 Q109.8125,34.2188 109.8125,36.3125 Q109.8125,38.4063 110.5,39.4844 Q111.1875,40.5469 112.5313,40.5469 Q113.1563,40.5469 113.75,40.2813 Q114.3438,40 114.9688,39.4219 L114.9688,42.1406 Z "/><text fill="#000000" font-family="sans-serif" font-size="12" lengthAdjust="spacingAndGlyphs" textLength="88" x="126" y="40.6543">ButtonsDialog</text><line style="stroke: #A80036; stroke-width: 1.5;" x1="98" x2="216" y1="52.5" y2="52.5"/><line style="stroke: #A80036; stroke-width: 1.5;" x1="98" x2="216" y1="60.5" y2="60.5"/><text fill="#000000" font-family="sans-serif" font-size="11" lengthAdjust="spacingAndGlyphs" textLength="70" x="103" y="74.7104">getButtons()</text><text fill="#000000" font-family="sans-serif" font-size="11" lengthAdjust="spacingAndGlyphs" textLength="87" x="103" y="87.5151">deleteButtons()</text><!--MD5=[9b237e88d697a058bd530d6510c96c00]
class BoardView--><rect fill="#FEFECE" filter="url(#f1kyxt4uypz2j9)" height="124.8281" id="BoardView" style="stroke: #A80036; stroke-width: 1.5;" width="195" x="350.5" y="167"/><ellipse cx="411.25" cy="183" fill="#ADD1B2" rx="11" ry="11" style="stroke: #A80036; stroke-width: 1.0;"/><path d="M414.2188,188.6406 Q413.6406,188.9375 413,189.0781 Q412.3594,189.2344 411.6563,189.2344 Q409.1563,189.2344 407.8281,187.5938 Q406.5156,185.9375 406.5156,182.8125 Q406.5156,179.6875 407.8281,178.0313 Q409.1563,176.375 411.6563,176.375 Q412.3594,176.375 413,176.5313 Q413.6563,176.6875 414.2188,176.9844 L414.2188,179.7031 Q413.5938,179.125 413,178.8594 Q412.4063,178.5781 411.7813,178.5781 Q410.4375,178.5781 409.75,179.6563 Q409.0625,180.7188 409.0625,182.8125 Q409.0625,184.9063 409.75,185.9844 Q410.4375,187.0469 411.7813,187.0469 Q412.4063,187.0469 413,186.7813 Q413.5938,186.5 414.2188,185.9219 L414.2188,188.6406 Z "/><text fill="#000000" font-family="sans-serif" font-size="12" lengthAdjust="spacingAndGlyphs" textLength="65" x="431.75" y="187.1543">BoardView</text><line style="stroke: #A80036; stroke-width: 1.5;" x1="351.5" x2="544.5" y1="199" y2="199"/><line style="stroke: #A80036; stroke-width: 1.5;" x1="351.5" x2="544.5" y1="207" y2="207"/><text fill="#000000" font-family="sans-serif" font-size="11" lengthAdjust="spacingAndGlyphs" textLength="106" x="370.5" y="221.2104">constructor(board)</text><polygon fill="#FFFF44" points="361.5,225.8047,365.5,229.8047,361.5,233.8047,357.5,229.8047" style="stroke: #B38D22; stroke-width: 1.0;"/><text fill="#000000" font-family="sans-serif" font-size="11" lengthAdjust="spacingAndGlyphs" textLength="75" x="370.5" y="234.0151">createTable()</text><polygon fill="#FFFF44" points="361.5,238.6094,365.5,242.6094,361.5,246.6094,357.5,242.6094" style="stroke: #B38D22; stroke-width: 1.0;"/><text fill="#000000" font-family="sans-serif" font-size="11" lengthAdjust="spacingAndGlyphs" textLength="96" x="370.5" y="246.8198">createRowH(row)</text><polygon fill="#FFFF44" points="361.5,251.4141,365.5,255.4141,361.5,259.4141,357.5,255.4141" style="stroke: #B38D22; stroke-width: 1.0;"/><text fill="#000000" font-family="sans-serif" font-size="11" lengthAdjust="spacingAndGlyphs" textLength="88" x="370.5" y="259.6245">createRow(row)</text><text fill="#000000" font-family="sans-serif" font-size="11" lengthAdjust="spacingAndGlyphs" textLength="169" x="370.5" y="272.4292">addUpdateListener(onUpdate)</text><text fill="#000000" font-family="sans-serif" font-size="11" lengthAdjust="spacingAndGlyphs" textLength="47" x="370.5" y="285.2339">update()</text><!--MD5=[a30167d0edf1cd591c2dcaeebfa6e35e]
class MessageDialog--><rect fill="#FEFECE" filter="url(#f1kyxt4uypz2j9)" height="73.6094" id="MessageDialog" style="stroke: #A80036; stroke-width: 1.5;" width="127" x="382.5" y="352"/><ellipse cx="397.5" cy="368" fill="#ADD1B2" rx="11" ry="11" style="stroke: #A80036; stroke-width: 1.0;"/><path d="M400.4688,373.6406 Q399.8906,373.9375 399.25,374.0781 Q398.6094,374.2344 397.9063,374.2344 Q395.4063,374.2344 394.0781,372.5938 Q392.7656,370.9375 392.7656,367.8125 Q392.7656,364.6875 394.0781,363.0313 Q395.4063,361.375 397.9063,361.375 Q398.6094,361.375 399.25,361.5313 Q399.9063,361.6875 400.4688,361.9844 L400.4688,364.7031 Q399.8438,364.125 399.25,363.8594 Q398.6563,363.5781 398.0313,363.5781 Q396.6875,363.5781 396,364.6563 Q395.3125,365.7188 395.3125,367.8125 Q395.3125,369.9063 396,370.9844 Q396.6875,372.0469 398.0313,372.0469 Q398.6563,372.0469 399.25,371.7813 Q399.8438,371.5 400.4688,370.9219 L400.4688,373.6406 Z "/><text fill="#000000" font-family="sans-serif" font-size="12" lengthAdjust="spacingAndGlyphs" textLength="95" x="411.5" y="372.1543">MessageDialog</text><line style="stroke: #A80036; stroke-width: 1.5;" x1="383.5" x2="508.5" y1="384" y2="384"/><line style="stroke: #A80036; stroke-width: 1.5;" x1="383.5" x2="508.5" y1="392" y2="392"/><text fill="#000000" font-family="sans-serif" font-size="11" lengthAdjust="spacingAndGlyphs" textLength="106" x="388.5" y="406.2104">constructor(board)</text><text fill="#000000" font-family="sans-serif" font-size="11" lengthAdjust="spacingAndGlyphs" textLength="47" x="388.5" y="419.0151">update()</text><!--MD5=[0f1adae5684a082996b24e2018afd4c9]
class TurnView--><rect fill="#FEFECE" filter="url(#f1kyxt4uypz2j9)" height="112.0234" id="TurnView" style="stroke: #A80036; stroke-width: 1.5;" width="221" x="1020.5" y="173.5"/><ellipse cx="1098.75" cy="189.5" fill="#ADD1B2" rx="11" ry="11" style="stroke: #A80036; stroke-width: 1.0;"/><path d="M1101.7188,195.1406 Q1101.1406,195.4375 1100.5,195.5781 Q1099.8594,195.7344 1099.1563,195.7344 Q1096.6563,195.7344 1095.3281,194.0938 Q1094.0156,192.4375 1094.0156,189.3125 Q1094.0156,186.1875 1095.3281,184.5313 Q1096.6563,182.875 1099.1563,182.875 Q1099.8594,182.875 1100.5,183.0313 Q1101.1563,183.1875 1101.7188,183.4844 L1101.7188,186.2031 Q1101.0938,185.625 1100.5,185.3594 Q1099.9063,185.0781 1099.2813,185.0781 Q1097.9375,185.0781 1097.25,186.1563 Q1096.5625,187.2188 1096.5625,189.3125 Q1096.5625,191.4063 1097.25,192.4844 Q1097.9375,193.5469 1099.2813,193.5469 Q1099.9063,193.5469 1100.5,193.2813 Q1101.0938,193 1101.7188,192.4219 L1101.7188,195.1406 Z "/><text fill="#000000" font-family="sans-serif" font-size="12" lengthAdjust="spacingAndGlyphs" textLength="56" x="1119.25" y="193.6543">TurnView</text><line style="stroke: #A80036; stroke-width: 1.5;" x1="1021.5" x2="1240.5" y1="205.5" y2="205.5"/><line style="stroke: #A80036; stroke-width: 1.5;" x1="1021.5" x2="1240.5" y1="213.5" y2="213.5"/><text fill="#000000" font-family="sans-serif" font-size="11" lengthAdjust="spacingAndGlyphs" textLength="96" x="1040.5" y="227.7104">constructor(turn)</text><polygon fill="#FFFF44" points="1031.5,232.3047,1035.5,236.3047,1031.5,240.3047,1027.5,236.3047" style="stroke: #B38D22; stroke-width: 1.0;"/><text fill="#000000" font-family="sans-serif" font-size="11" lengthAdjust="spacingAndGlyphs" textLength="47" x="1040.5" y="240.5151">update()</text><text fill="#000000" font-family="sans-serif" font-size="11" lengthAdjust="spacingAndGlyphs" textLength="109" x="1040.5" y="253.3198">dropToken(column)</text><text fill="#000000" font-family="sans-serif" font-size="11" lengthAdjust="spacingAndGlyphs" textLength="154" x="1040.5" y="266.1245">visitUserPlayer(userPlayer)</text><text fill="#000000" font-family="sans-serif" font-size="11" lengthAdjust="spacingAndGlyphs" textLength="195" x="1040.5" y="278.9292">visitMachinePlayer(machinePlayer)</text><!--MD5=[36cecfbbd0ac4930009be74a136cac5e]
link GameView to NumPlayersDialog--><path d="M389.26,107.22 C355.06,135.57 312.87,170.56 282.6,195.66 " fill="none" id="GameView-&gt;NumPlayersDialog" style="stroke: #A80036; stroke-width: 1.0; stroke-dasharray: 7.0,7.0;"/><polygon fill="#A80036" points="278.6,198.98,288.0864,196.3328,282.4551,195.796,282.992,190.1646,278.6,198.98" style="stroke: #A80036; stroke-width: 1.0;"/><!--MD5=[91950ed4a576afead0392f1fc0195c03]
link GameView to ResumeDialog--><path d="M378.71,75.74 C317.08,92.72 225.7,121.99 153,162.5 C136.66,171.61 120.27,183.98 106.49,195.56 " fill="none" id="GameView-&gt;ResumeDialog" style="stroke: #A80036; stroke-width: 1.0; stroke-dasharray: 7.0,7.0;"/><polygon fill="#A80036" points="102.68,198.8,112.1277,196.0179,106.4893,195.5613,106.9459,189.9229,102.68,198.8" style="stroke: #A80036; stroke-width: 1.0;"/><!--MD5=[27afd30be53ce2c3c1bdfd74a9a249d9]
reverse link ButtonsDialog to NumPlayersDialog--><path d="M184.46,112.78 C198.86,141.25 215.96,175.04 227.94,198.73 " fill="none" id="ButtonsDialog&lt;-NumPlayersDialog" style="stroke: #A80036; stroke-width: 1.0;"/><polygon fill="none" points="178.02,115.56,175.24,94.55,190.51,109.24,178.02,115.56" style="stroke: #A80036; stroke-width: 1.0;"/><!--MD5=[2e81de458af72588e0bb670eea027b04]
reverse link ButtonsDialog to ResumeDialog--><path d="M129.54,112.78 C115.14,141.25 98.04,175.04 86.06,198.73 " fill="none" id="ButtonsDialog&lt;-ResumeDialog" style="stroke: #A80036; stroke-width: 1.0;"/><polygon fill="none" points="123.49,109.24,138.76,94.55,135.98,115.56,123.49,109.24" style="stroke: #A80036; stroke-width: 1.0;"/><!--MD5=[68692b7445e8124699a5a0ef018bbca4]
link BoardView to MessageDialog--><path d="M447.22,292.3 C446.98,310.57 446.73,330.13 446.52,346.77 " fill="none" id="BoardView-&gt;MessageDialog" style="stroke: #A80036; stroke-width: 1.0; stroke-dasharray: 7.0,7.0;"/><polygon fill="#A80036" points="446.46,351.83,450.5626,342.8763,446.5171,346.8303,442.5631,342.7849,446.46,351.83" style="stroke: #A80036; stroke-width: 1.0;"/><!--MD5=[ca04c0eda4482e2f74e8c9b82fcb79bf]
link GameView to Game--><path d="M505.15,107.13 C524.13,124.07 545,143.59 563,162.5 C574.65,174.74 586.64,189.18 596.35,201.43 " fill="none" id="GameView-&gt;Game" style="stroke: #A80036; stroke-width: 1.0;"/><polygon fill="#A80036" points="599.56,205.49,597.125,195.9469,596.4627,201.5649,590.8448,200.9026,599.56,205.49" style="stroke: #A80036; stroke-width: 1.0;"/><!--MD5=[7df4e8fc8ef15cc8ca9effbcc2622283]
link GameView to TurnView--><path d="M529.3631,66.0258 C529.3631,66.0258 841.99,106.02 1005,162.5 C1010.12,164.27 1015.29,166.23 1020.45,168.32 " fill="none" id="GameView-TurnView" style="stroke: #A80036; stroke-width: 1.0;"/><polygon fill="#A80036" points="1032.5,173.43,1025.7805,166.2294,1027.898,171.475,1022.6525,173.5926,1032.5,173.43" style="stroke: #A80036; stroke-width: 1.0;"/><line style="stroke: #A80036; stroke-width: 1.0;" x1="1027.898" x2="1020.53" y1="171.475" y2="168.35"/><polygon fill="#A80036" points="517.43,64.76,522.9746,69.3706,529.3631,66.0258,523.8185,61.4152,517.43,64.76" style="stroke: #A80036; stroke-width: 1.0;"/><!--MD5=[c2d12ea21a8ed9d7b07c5ed2223bb09d]
link GameView to BoardView--><path d="M448,119.22 C448,119.22 448,142.54 448,153.51 " fill="none" id="GameView-BoardView" style="stroke: #A80036; stroke-width: 1.0;"/><polygon fill="#A80036" points="448,166.73,452,157.73,448,161.73,444,157.73,448,166.73" style="stroke: #A80036; stroke-width: 1.0;"/><line style="stroke: #A80036; stroke-width: 1.0;" x1="448" x2="448" y1="161.73" y2="153.73"/><polygon fill="#A80036" points="448,107.22,444,113.22,448,119.22,452,113.22,448,107.22" style="stroke: #A80036; stroke-width: 1.0;"/><!--MD5=[87ac28f7ff846e55e34c2c863c6ff220]
link BoardView to Board--><path d="M492.52,292.02 C504.78,310.69 517.34,331.66 527,352 C566.18,434.49 593.84,539.63 605.63,589 " fill="none" id="BoardView-&gt;Board" style="stroke: #A80036; stroke-width: 1.0;"/><polygon fill="#A80036" points="606.79,593.89,608.5954,584.208,605.6313,589.0261,600.8132,586.062,606.79,593.89" style="stroke: #A80036; stroke-width: 1.0;"/><!--MD5=[b90c15517c5612720f6d3b5735a27f0e]
link TurnView to Turn--><path d="M1020.36,285.39 C1015.19,287.68 1010.05,289.89 1005,292 C920.74,327.18 818.52,360.64 765.96,377.2 " fill="none" id="TurnView-&gt;Turn" style="stroke: #A80036; stroke-width: 1.0;"/><polygon fill="#A80036" points="761.03,378.75,770.8153,379.8668,765.7999,377.2505,768.4161,372.235,761.03,378.75" style="stroke: #A80036; stroke-width: 1.0;"/><!--MD5=[b9f1e39ad85d50fe6f3a071a4341c320]
link Game to Turn--><path d="M640.8608,263.4574 C640.8608,263.4574 687.45,327.84 706.59,354.27 " fill="none" id="Game-Turn" style="stroke: #A80036; stroke-width: 1.0;"/><polygon fill="#A80036" points="714.3,364.92,712.2585,355.285,711.3663,360.8711,705.7803,359.9789,714.3,364.92" style="stroke: #A80036; stroke-width: 1.0;"/><line style="stroke: #A80036; stroke-width: 1.0;" x1="711.3663" x2="706.675" y1="360.8711" y2="354.39"/><polygon fill="#A80036" points="633.82,253.74,634.1013,260.9456,640.8608,263.4574,640.5795,256.2517,633.82,253.74" style="stroke: #A80036; stroke-width: 1.0;"/><!--MD5=[d81713d91ad05be3b975338c4816ee0b]
link Turn to Player--><path d="M731,425.23 C731,425.23 731,457.98 731,472.62 " fill="none" id="Turn-Player" style="stroke: #A80036; stroke-width: 1.0;"/><polygon fill="#A80036" points="731,485.83,735,476.83,731,480.83,727,476.83,731,485.83" style="stroke: #A80036; stroke-width: 1.0;"/><line style="stroke: #A80036; stroke-width: 1.0;" x1="731" x2="731" y1="480.83" y2="472.83"/><polygon fill="#A80036" points="731,413.23,727,419.23,731,425.23,735,419.23,731,413.23" style="stroke: #A80036; stroke-width: 1.0;"/><text fill="#000000" font-family="sans-serif" font-size="13" lengthAdjust="spacingAndGlyphs" textLength="8" x="721.975" y="474.7985">2</text><!--MD5=[15c8f9ca3aac13d865864b4eb5314ef1]
link Game to Board--><path d="M616.5418,265.519 C616.5418,265.519 613.43,506.8 612.47,580.55 " fill="none" id="Game-Board" style="stroke: #A80036; stroke-width: 1.0;"/><polygon fill="#A80036" points="612.3,593.61,616.4183,584.6635,612.3659,588.6104,608.419,584.558,612.3,593.61" style="stroke: #A80036; stroke-width: 1.0;"/><line style="stroke: #A80036; stroke-width: 1.0;" x1="612.3659" x2="612.47" y1="588.6104" y2="580.61"/><polygon fill="#A80036" points="616.7,253.52,612.6212,259.4667,616.5418,265.519,620.6205,259.5722,616.7,253.52" style="stroke: #A80036; stroke-width: 1.0;"/><!--MD5=[c1f7e88598f78d9459764ed93737eb14]
link Player to Board--><path d="M705.18,534 C686.59,550.55 661.47,572.93 642,590.28 " fill="none" id="Player-&gt;Board" style="stroke: #A80036; stroke-width: 1.0;"/><polygon fill="#A80036" points="638.18,593.68,647.5577,590.6703,641.9099,590.3502,642.2301,584.7024,638.18,593.68" style="stroke: #A80036; stroke-width: 1.0;"/><!--MD5=[83e73cc634b6a0fa1d7bbb56c08baf04]
reverse link Player to RandomMachinePlayer--><path d="M783.27,543.4 C809.56,559.7 840.82,579.07 864.66,593.85 " fill="none" id="Player&lt;-RandomMachinePlayer" style="stroke: #A80036; stroke-width: 1.0;"/><polygon fill="none" points="779.33,549.19,766.02,532.71,786.7,537.29,779.33,549.19" style="stroke: #A80036; stroke-width: 1.0;"/><!--MD5=[5f3eff46017ea40d2ca7f35522a8d7fb]
reverse link Player to UserPlayer--><path d="M731,554.02 C731,567.58 731,582.04 731,593.68 " fill="none" id="Player&lt;-UserPlayer" style="stroke: #A80036; stroke-width: 1.0;"/><polygon fill="none" points="724,554,731,534,738,554,724,554" style="stroke: #A80036; stroke-width: 1.0;"/><!--MD5=[e826737a625460b86ce5b4b127cba347]
@startuml

class GameView {
  #init()
  #onUpdate(column)
  visitUserPlayer() 
  visitMachinePlayer()
}

GameView ..> NumPlayersDialog
GameView ..> ResumeDialog

class NumPlayersDialog extends ButtonsDialog {
    constructor(callback) 
}

class ResumeDialog extends ButtonsDialog {
    constructor(callback) 
}

class ResumeDialog

class BoardView {
  constructor(board)
  #createTable() 
  #createRowH(row) 
  #createRow(row)
  addUpdateListener(onUpdate)
  update()
}

 class MessageDialog {
    constructor(board) 
    update() 
}


BoardView ..> MessageDialog

class TurnView {
  constructor(turn)
  #update() 
  dropToken(column) 
  visitUserPlayer(userPlayer) 
  visitMachinePlayer(machinePlayer)
}

class ButtonsDialog {
    getButtons()
    deleteButtons()
}

package models {
class Game
class Turn
abstract class Player
class RandomMachinePlayer
class UserPlayer
class Board
}

GameView -down-> Game
GameView *-down-> TurnView
GameView *-down-> BoardView
BoardView -down-> Board
TurnView -down-> Turn
Game *-down-> Turn
Turn *-down-> "2" Player
Game *-down-> Board
Player -down-> Board
Player <|- - RandomMachinePlayer
Player <|- - UserPlayer

@enduml

PlantUML version 1.2020.02(Sun Mar 01 06:22:07 VET 2020)
(GPL source distribution)
Java Runtime: OpenJDK Runtime Environment
JVM: OpenJDK 64-Bit Server VM
Java Version: 11.0.17+8-post-Ubuntu-1ubuntu222.04
Operating System: Linux
Default Encoding: UTF-8
Language: en
Country: US
--></g></svg>