<?xml version="1.0" encoding="UTF-8" standalone="no"?><svg xmlns="http://www.w3.org/2000/svg" xmlns:xlink="http://www.w3.org/1999/xlink" contentScriptType="application/ecmascript" contentStyleType="text/css" height="874px" preserveAspectRatio="none" style="width:1354px;height:874px;" version="1.1" viewBox="0 0 1354 874" width="1354px" zoomAndPan="magnify"><defs><filter height="300%" id="f1wuvm0xc51r1d" width="300%" x="-1" y="-1"><feGaussianBlur result="blurOut" stdDeviation="2.0"/><feColorMatrix in="blurOut" result="blurOut2" type="matrix" values="0 0 0 0 0 0 0 0 0 0 0 0 0 0 0 0 0 0 .4 0"/><feOffset dx="4.0" dy="4.0" in="blurOut2" result="blurOut3"/><feBlend in="SourceGraphic" in2="blurOut3" mode="normal"/></filter></defs><g><!--MD5=[a60570e4b426f702ccbb0d459e3b9417]
cluster models--><polygon fill="#FFFFFF" filter="url(#f1wuvm0xc51r1d)" points="688.84,247,751.84,247,758.84,269.2969,1132.84,269.2969,1132.84,862,688.84,862,688.84,247" style="stroke: #000000; stroke-width: 1.5;"/><line style="stroke: #000000; stroke-width: 1.5;" x1="688.84" x2="758.84" y1="269.2969" y2="269.2969"/><text fill="#000000" font-family="sans-serif" font-size="14" font-weight="bold" lengthAdjust="spacingAndGlyphs" textLength="57" x="692.84" y="261.9951">models</text><!--MD5=[b6dcce5e5ef3c84b0b048d11301373dd]
class Game--><rect fill="#FEFECE" filter="url(#f1wuvm0xc51r1d)" height="48" id="Game" style="stroke: #A80036; stroke-width: 1.5;" width="68" x="774.84" y="282"/><ellipse cx="789.84" cy="298" fill="#ADD1B2" rx="11" ry="11" style="stroke: #A80036; stroke-width: 1.0;"/><path d="M792.8088,303.6406 Q792.2306,303.9375 791.59,304.0781 Q790.9494,304.2344 790.2463,304.2344 Q787.7463,304.2344 786.4181,302.5938 Q785.1056,300.9375 785.1056,297.8125 Q785.1056,294.6875 786.4181,293.0313 Q787.7463,291.375 790.2463,291.375 Q790.9494,291.375 791.59,291.5313 Q792.2463,291.6875 792.8088,291.9844 L792.8088,294.7031 Q792.1838,294.125 791.59,293.8594 Q790.9963,293.5781 790.3713,293.5781 Q789.0275,293.5781 788.34,294.6563 Q787.6525,295.7188 787.6525,297.8125 Q787.6525,299.9063 788.34,300.9844 Q789.0275,302.0469 790.3713,302.0469 Q790.9963,302.0469 791.59,301.7813 Q792.1838,301.5 792.8088,300.9219 L792.8088,303.6406 Z "/><text fill="#000000" font-family="sans-serif" font-size="12" lengthAdjust="spacingAndGlyphs" textLength="36" x="803.84" y="302.1543">Game</text><line style="stroke: #A80036; stroke-width: 1.5;" x1="775.84" x2="841.84" y1="314" y2="314"/><line style="stroke: #A80036; stroke-width: 1.5;" x1="775.84" x2="841.84" y1="322" y2="322"/><!--MD5=[dd91eae41778c45e12552e5329e240e8]
class Turn--><rect fill="#FEFECE" filter="url(#f1wuvm0xc51r1d)" height="48" id="Turn" style="stroke: #A80036; stroke-width: 1.5;" width="60" x="778.84" y="486"/><ellipse cx="793.84" cy="502" fill="#ADD1B2" rx="11" ry="11" style="stroke: #A80036; stroke-width: 1.0;"/><path d="M796.8088,507.6406 Q796.2306,507.9375 795.59,508.0781 Q794.9494,508.2344 794.2463,508.2344 Q791.7463,508.2344 790.4181,506.5938 Q789.1056,504.9375 789.1056,501.8125 Q789.1056,498.6875 790.4181,497.0313 Q791.7463,495.375 794.2463,495.375 Q794.9494,495.375 795.59,495.5313 Q796.2463,495.6875 796.8088,495.9844 L796.8088,498.7031 Q796.1838,498.125 795.59,497.8594 Q794.9963,497.5781 794.3713,497.5781 Q793.0275,497.5781 792.34,498.6563 Q791.6525,499.7188 791.6525,501.8125 Q791.6525,503.9063 792.34,504.9844 Q793.0275,506.0469 794.3713,506.0469 Q794.9963,506.0469 795.59,505.7813 Q796.1838,505.5 796.8088,504.9219 L796.8088,507.6406 Z "/><text fill="#000000" font-family="sans-serif" font-size="12" lengthAdjust="spacingAndGlyphs" textLength="28" x="807.84" y="506.1543">Turn</text><line style="stroke: #A80036; stroke-width: 1.5;" x1="779.84" x2="837.84" y1="518" y2="518"/><line style="stroke: #A80036; stroke-width: 1.5;" x1="779.84" x2="837.84" y1="526" y2="526"/><!--MD5=[2cb47ba637a0d19583e6199456f6ad0b]
class Player--><rect fill="#FEFECE" filter="url(#f1wuvm0xc51r1d)" height="48" id="Player" style="stroke: #A80036; stroke-width: 1.5;" width="70" x="797.84" y="664.5"/><ellipse cx="812.84" cy="680.5" fill="#A9DCDF" rx="11" ry="11" style="stroke: #A80036; stroke-width: 1.0;"/><path d="M812.9494,675.8438 L811.7931,680.9219 L814.1213,680.9219 L812.9494,675.8438 Z M811.465,673.6094 L814.4494,673.6094 L817.8088,686 L815.3556,686 L814.59,682.9375 L811.3088,682.9375 L810.5588,686 L808.1213,686 L811.465,673.6094 Z "/><text fill="#000000" font-family="sans-serif" font-size="12" font-style="italic" lengthAdjust="spacingAndGlyphs" textLength="38" x="826.84" y="684.6543">Player</text><line style="stroke: #A80036; stroke-width: 1.5;" x1="798.84" x2="866.84" y1="696.5" y2="696.5"/><line style="stroke: #A80036; stroke-width: 1.5;" x1="798.84" x2="866.84" y1="704.5" y2="704.5"/><!--MD5=[bed9476c332430e0fd8ad70c4aac2ffe]
class RandomMachinePlayer--><rect fill="#FEFECE" filter="url(#f1wuvm0xc51r1d)" height="48" id="RandomMachinePlayer" style="stroke: #A80036; stroke-width: 1.5;" width="173" x="705.34" y="798"/><ellipse cx="720.34" cy="814" fill="#ADD1B2" rx="11" ry="11" style="stroke: #A80036; stroke-width: 1.0;"/><path d="M723.3088,819.6406 Q722.7306,819.9375 722.09,820.0781 Q721.4494,820.2344 720.7463,820.2344 Q718.2463,820.2344 716.9181,818.5938 Q715.6056,816.9375 715.6056,813.8125 Q715.6056,810.6875 716.9181,809.0313 Q718.2463,807.375 720.7463,807.375 Q721.4494,807.375 722.09,807.5313 Q722.7463,807.6875 723.3088,807.9844 L723.3088,810.7031 Q722.6838,810.125 722.09,809.8594 Q721.4963,809.5781 720.8713,809.5781 Q719.5275,809.5781 718.84,810.6563 Q718.1525,811.7188 718.1525,813.8125 Q718.1525,815.9063 718.84,816.9844 Q719.5275,818.0469 720.8713,818.0469 Q721.4963,818.0469 722.09,817.7813 Q722.6838,817.5 723.3088,816.9219 L723.3088,819.6406 Z "/><text fill="#000000" font-family="sans-serif" font-size="12" lengthAdjust="spacingAndGlyphs" textLength="141" x="734.34" y="818.1543">RandomMachinePlayer</text><line style="stroke: #A80036; stroke-width: 1.5;" x1="706.34" x2="877.34" y1="830" y2="830"/><line style="stroke: #A80036; stroke-width: 1.5;" x1="706.34" x2="877.34" y1="838" y2="838"/><!--MD5=[d159557bab43e1f13b9627fe22d6ac69]
class UserPlayer--><rect fill="#FEFECE" filter="url(#f1wuvm0xc51r1d)" height="48" id="UserPlayer" style="stroke: #A80036; stroke-width: 1.5;" width="99" x="913.34" y="798"/><ellipse cx="928.34" cy="814" fill="#ADD1B2" rx="11" ry="11" style="stroke: #A80036; stroke-width: 1.0;"/><path d="M931.3088,819.6406 Q930.7306,819.9375 930.09,820.0781 Q929.4494,820.2344 928.7463,820.2344 Q926.2463,820.2344 924.9181,818.5938 Q923.6056,816.9375 923.6056,813.8125 Q923.6056,810.6875 924.9181,809.0313 Q926.2463,807.375 928.7463,807.375 Q929.4494,807.375 930.09,807.5313 Q930.7463,807.6875 931.3088,807.9844 L931.3088,810.7031 Q930.6838,810.125 930.09,809.8594 Q929.4963,809.5781 928.8713,809.5781 Q927.5275,809.5781 926.84,810.6563 Q926.1525,811.7188 926.1525,813.8125 Q926.1525,815.9063 926.84,816.9844 Q927.5275,818.0469 928.8713,818.0469 Q929.4963,818.0469 930.09,817.7813 Q930.6838,817.5 931.3088,816.9219 L931.3088,819.6406 Z "/><text fill="#000000" font-family="sans-serif" font-size="12" lengthAdjust="spacingAndGlyphs" textLength="67" x="942.34" y="818.1543">UserPlayer</text><line style="stroke: #A80036; stroke-width: 1.5;" x1="914.34" x2="1011.34" y1="830" y2="830"/><line style="stroke: #A80036; stroke-width: 1.5;" x1="914.34" x2="1011.34" y1="838" y2="838"/><!--MD5=[9563755d011c5cec7ec66dc53565a59e]
class Board--><rect fill="#FEFECE" filter="url(#f1wuvm0xc51r1d)" height="48" id="Board" style="stroke: #A80036; stroke-width: 1.5;" width="69" x="1047.34" y="798"/><ellipse cx="1062.34" cy="814" fill="#ADD1B2" rx="11" ry="11" style="stroke: #A80036; stroke-width: 1.0;"/><path d="M1065.3088,819.6406 Q1064.7306,819.9375 1064.09,820.0781 Q1063.4494,820.2344 1062.7463,820.2344 Q1060.2463,820.2344 1058.9181,818.5938 Q1057.6056,816.9375 1057.6056,813.8125 Q1057.6056,810.6875 1058.9181,809.0313 Q1060.2463,807.375 1062.7463,807.375 Q1063.4494,807.375 1064.09,807.5313 Q1064.7463,807.6875 1065.3088,807.9844 L1065.3088,810.7031 Q1064.6838,810.125 1064.09,809.8594 Q1063.4963,809.5781 1062.8713,809.5781 Q1061.5275,809.5781 1060.84,810.6563 Q1060.1525,811.7188 1060.1525,813.8125 Q1060.1525,815.9063 1060.84,816.9844 Q1061.5275,818.0469 1062.8713,818.0469 Q1063.4963,818.0469 1064.09,817.7813 Q1064.6838,817.5 1065.3088,816.9219 L1065.3088,819.6406 Z "/><text fill="#000000" font-family="sans-serif" font-size="12" lengthAdjust="spacingAndGlyphs" textLength="37" x="1076.34" y="818.1543">Board</text><line style="stroke: #A80036; stroke-width: 1.5;" x1="1048.34" x2="1115.34" y1="830" y2="830"/><line style="stroke: #A80036; stroke-width: 1.5;" x1="1048.34" x2="1115.34" y1="838" y2="838"/><!--MD5=[5d3822d29342fbd355d1b65ea3562ec9]
class GameView--><rect fill="#FEFECE" filter="url(#f1wuvm0xc51r1d)" height="163.2422" id="GameView" style="stroke: #A80036; stroke-width: 1.5;" width="138" x="411.84" y="8"/><ellipse cx="445.74" cy="24" fill="#ADD1B2" rx="11" ry="11" style="stroke: #A80036; stroke-width: 1.0;"/><path d="M448.7087,29.6406 Q448.1306,29.9375 447.49,30.0781 Q446.8494,30.2344 446.1462,30.2344 Q443.6462,30.2344 442.3181,28.5938 Q441.0056,26.9375 441.0056,23.8125 Q441.0056,20.6875 442.3181,19.0313 Q443.6462,17.375 446.1462,17.375 Q446.8494,17.375 447.49,17.5313 Q448.1462,17.6875 448.7087,17.9844 L448.7087,20.7031 Q448.0837,20.125 447.49,19.8594 Q446.8962,19.5781 446.2712,19.5781 Q444.9275,19.5781 444.24,20.6563 Q443.5525,21.7188 443.5525,23.8125 Q443.5525,25.9063 444.24,26.9844 Q444.9275,28.0469 446.2712,28.0469 Q446.8962,28.0469 447.49,27.7813 Q448.0837,27.5 448.7087,26.9219 L448.7087,29.6406 Z "/><text fill="#000000" font-family="sans-serif" font-size="12" lengthAdjust="spacingAndGlyphs" textLength="64" x="463.94" y="28.1543">GameView</text><line style="stroke: #A80036; stroke-width: 1.5;" x1="412.84" x2="548.84" y1="40" y2="40"/><rect fill="none" height="6" style="stroke: #C82930; stroke-width: 1.0;" width="6" x="419.84" y="48"/><text fill="#000000" font-family="sans-serif" font-size="11" lengthAdjust="spacingAndGlyphs" textLength="32" x="431.84" y="54.2104">game</text><rect fill="none" height="6" style="stroke: #C82930; stroke-width: 1.0;" width="6" x="419.84" y="60.8047"/><text fill="#000000" font-family="sans-serif" font-size="11" lengthAdjust="spacingAndGlyphs" textLength="59" x="431.84" y="67.0151">boardView</text><rect fill="none" height="6" style="stroke: #C82930; stroke-width: 1.0;" width="6" x="419.84" y="73.6094"/><text fill="#000000" font-family="sans-serif" font-size="11" lengthAdjust="spacingAndGlyphs" textLength="49" x="431.84" y="79.8198">turnView</text><rect fill="none" height="6" style="stroke: #C82930; stroke-width: 1.0;" width="6" x="419.84" y="86.4141"/><text fill="#000000" font-family="sans-serif" font-size="11" lengthAdjust="spacingAndGlyphs" textLength="70" x="431.84" y="92.6245">storageView</text><line style="stroke: #A80036; stroke-width: 1.5;" x1="412.84" x2="548.84" y1="99.2188" y2="99.2188"/><rect fill="#F24D5C" height="6" style="stroke: #C82930; stroke-width: 1.0;" width="6" x="419.84" y="107.2188"/><text fill="#000000" font-family="sans-serif" font-size="11" lengthAdjust="spacingAndGlyphs" textLength="25" x="431.84" y="113.4292">init()</text><rect fill="#F24D5C" height="6" style="stroke: #C82930; stroke-width: 1.0;" width="6" x="419.84" y="120.0234"/><text fill="#000000" font-family="sans-serif" font-size="11" lengthAdjust="spacingAndGlyphs" textLength="103" x="431.84" y="126.2339">onUpdate(column)</text><text fill="#000000" font-family="sans-serif" font-size="11" lengthAdjust="spacingAndGlyphs" textLength="93" x="431.84" y="139.0386">visitUserPlayer()</text><text fill="#000000" font-family="sans-serif" font-size="11" lengthAdjust="spacingAndGlyphs" textLength="112" x="431.84" y="151.8433">visitMachinePlayer()</text><rect fill="#F24D5C" height="6" style="stroke: #C82930; stroke-width: 1.0;" width="6" x="419.84" y="158.4375"/><text fill="#000000" font-family="sans-serif" font-size="11" lengthAdjust="spacingAndGlyphs" textLength="66" x="431.84" y="164.6479">loadGame()</text><!--MD5=[1300e25f32aebab0be618a4b9fe276da]
class NumPlayersDialog--><rect fill="#FEFECE" filter="url(#f1wuvm0xc51r1d)" height="60.8047" id="NumPlayersDialog" style="stroke: #A80036; stroke-width: 1.5;" width="144" x="201.84" y="275.5"/><ellipse cx="216.84" cy="291.5" fill="#ADD1B2" rx="11" ry="11" style="stroke: #A80036; stroke-width: 1.0;"/><path d="M219.8088,297.1406 Q219.2306,297.4375 218.59,297.5781 Q217.9494,297.7344 217.2463,297.7344 Q214.7463,297.7344 213.4181,296.0938 Q212.1056,294.4375 212.1056,291.3125 Q212.1056,288.1875 213.4181,286.5313 Q214.7463,284.875 217.2463,284.875 Q217.9494,284.875 218.59,285.0313 Q219.2463,285.1875 219.8088,285.4844 L219.8088,288.2031 Q219.1838,287.625 218.59,287.3594 Q217.9963,287.0781 217.3713,287.0781 Q216.0275,287.0781 215.34,288.1563 Q214.6525,289.2188 214.6525,291.3125 Q214.6525,293.4063 215.34,294.4844 Q216.0275,295.5469 217.3713,295.5469 Q217.9963,295.5469 218.59,295.2813 Q219.1838,295 219.8088,294.4219 L219.8088,297.1406 Z "/><text fill="#000000" font-family="sans-serif" font-size="12" lengthAdjust="spacingAndGlyphs" textLength="112" x="230.84" y="295.6543">NumPlayersDialog</text><line style="stroke: #A80036; stroke-width: 1.5;" x1="202.84" x2="344.84" y1="307.5" y2="307.5"/><line style="stroke: #A80036; stroke-width: 1.5;" x1="202.84" x2="344.84" y1="315.5" y2="315.5"/><text fill="#000000" font-family="sans-serif" font-size="11" lengthAdjust="spacingAndGlyphs" textLength="118" x="207.84" y="329.7104">constructor(callback)</text><!--MD5=[96d34c609f3a35611fab0ba2ac4bf14f]
class ResumeDialog--><rect fill="#FEFECE" filter="url(#f1wuvm0xc51r1d)" height="60.8047" id="ResumeDialog" style="stroke: #A80036; stroke-width: 1.5;" width="130" x="36.84" y="275.5"/><ellipse cx="55.89" cy="291.5" fill="#ADD1B2" rx="11" ry="11" style="stroke: #A80036; stroke-width: 1.0;"/><path d="M58.8588,297.1406 Q58.2806,297.4375 57.64,297.5781 Q56.9994,297.7344 56.2963,297.7344 Q53.7963,297.7344 52.4681,296.0938 Q51.1556,294.4375 51.1556,291.3125 Q51.1556,288.1875 52.4681,286.5313 Q53.7963,284.875 56.2963,284.875 Q56.9994,284.875 57.64,285.0313 Q58.2963,285.1875 58.8588,285.4844 L58.8588,288.2031 Q58.2338,287.625 57.64,287.3594 Q57.0463,287.0781 56.4213,287.0781 Q55.0775,287.0781 54.39,288.1563 Q53.7025,289.2188 53.7025,291.3125 Q53.7025,293.4063 54.39,294.4844 Q55.0775,295.5469 56.4213,295.5469 Q57.0463,295.5469 57.64,295.2813 Q58.2338,295 58.8588,294.4219 L58.8588,297.1406 Z "/><text fill="#000000" font-family="sans-serif" font-size="12" lengthAdjust="spacingAndGlyphs" textLength="89" x="70.79" y="295.6543">ResumeDialog</text><line style="stroke: #A80036; stroke-width: 1.5;" x1="37.84" x2="165.84" y1="307.5" y2="307.5"/><line style="stroke: #A80036; stroke-width: 1.5;" x1="37.84" x2="165.84" y1="315.5" y2="315.5"/><text fill="#000000" font-family="sans-serif" font-size="11" lengthAdjust="spacingAndGlyphs" textLength="118" x="42.84" y="329.7104">constructor(callback)</text><!--MD5=[81f93d19c3c2c34e5abb148ec948c897]
class ButtonsDialog--><rect fill="#FEFECE" filter="url(#f1wuvm0xc51r1d)" height="112.0234" id="ButtonsDialog" style="stroke: #A80036; stroke-width: 1.5;" width="120" x="41.84" y="33.5"/><ellipse cx="56.84" cy="49.5" fill="#ADD1B2" rx="11" ry="11" style="stroke: #A80036; stroke-width: 1.0;"/><path d="M59.8088,55.1406 Q59.2306,55.4375 58.59,55.5781 Q57.9494,55.7344 57.2463,55.7344 Q54.7463,55.7344 53.4181,54.0938 Q52.1056,52.4375 52.1056,49.3125 Q52.1056,46.1875 53.4181,44.5313 Q54.7463,42.875 57.2463,42.875 Q57.9494,42.875 58.59,43.0313 Q59.2463,43.1875 59.8088,43.4844 L59.8088,46.2031 Q59.1838,45.625 58.59,45.3594 Q57.9963,45.0781 57.3713,45.0781 Q56.0275,45.0781 55.34,46.1563 Q54.6525,47.2188 54.6525,49.3125 Q54.6525,51.4063 55.34,52.4844 Q56.0275,53.5469 57.3713,53.5469 Q57.9963,53.5469 58.59,53.2813 Q59.1838,53 59.8088,52.4219 L59.8088,55.1406 Z "/><text fill="#000000" font-family="sans-serif" font-size="12" lengthAdjust="spacingAndGlyphs" textLength="88" x="70.84" y="53.6543">ButtonsDialog</text><line style="stroke: #A80036; stroke-width: 1.5;" x1="42.84" x2="160.84" y1="65.5" y2="65.5"/><rect fill="none" height="6" style="stroke: #C82930; stroke-width: 1.0;" width="6" x="49.84" y="73.5"/><text fill="#000000" font-family="sans-serif" font-size="11" lengthAdjust="spacingAndGlyphs" textLength="43" x="61.84" y="79.7104">buttons</text><line style="stroke: #A80036; stroke-width: 1.5;" x1="42.84" x2="160.84" y1="86.3047" y2="86.3047"/><text fill="#000000" font-family="sans-serif" font-size="11" lengthAdjust="spacingAndGlyphs" textLength="88" x="47.84" y="100.5151">createButtons()</text><text fill="#000000" font-family="sans-serif" font-size="11" lengthAdjust="spacingAndGlyphs" textLength="66" x="47.84" y="113.3198">addButton()</text><text fill="#000000" font-family="sans-serif" font-size="11" lengthAdjust="spacingAndGlyphs" textLength="87" x="47.84" y="126.1245">deleteButtons()</text><text fill="#000000" font-family="sans-serif" font-size="11" lengthAdjust="spacingAndGlyphs" textLength="70" x="47.84" y="138.9292">getButtons()</text><!--MD5=[9b237e88d697a058bd530d6510c96c00]
class BoardView--><rect fill="#FEFECE" filter="url(#f1wuvm0xc51r1d)" height="150.4375" id="BoardView" style="stroke: #A80036; stroke-width: 1.5;" width="195" x="1148.34" y="231"/><ellipse cx="1209.09" cy="247" fill="#ADD1B2" rx="11" ry="11" style="stroke: #A80036; stroke-width: 1.0;"/><path d="M1212.0588,252.6406 Q1211.4806,252.9375 1210.84,253.0781 Q1210.1994,253.2344 1209.4963,253.2344 Q1206.9963,253.2344 1205.6681,251.5938 Q1204.3556,249.9375 1204.3556,246.8125 Q1204.3556,243.6875 1205.6681,242.0313 Q1206.9963,240.375 1209.4963,240.375 Q1210.1994,240.375 1210.84,240.5313 Q1211.4963,240.6875 1212.0588,240.9844 L1212.0588,243.7031 Q1211.4338,243.125 1210.84,242.8594 Q1210.2463,242.5781 1209.6213,242.5781 Q1208.2775,242.5781 1207.59,243.6563 Q1206.9025,244.7188 1206.9025,246.8125 Q1206.9025,248.9063 1207.59,249.9844 Q1208.2775,251.0469 1209.6213,251.0469 Q1210.2463,251.0469 1210.84,250.7813 Q1211.4338,250.5 1212.0588,249.9219 L1212.0588,252.6406 Z "/><text fill="#000000" font-family="sans-serif" font-size="12" lengthAdjust="spacingAndGlyphs" textLength="65" x="1229.59" y="251.1543">BoardView</text><line style="stroke: #A80036; stroke-width: 1.5;" x1="1149.34" x2="1342.34" y1="263" y2="263"/><rect fill="none" height="6" style="stroke: #C82930; stroke-width: 1.0;" width="6" x="1156.34" y="271"/><text fill="#000000" font-family="sans-serif" font-size="11" lengthAdjust="spacingAndGlyphs" textLength="33" x="1168.34" y="277.2104">board</text><rect fill="none" height="6" style="stroke: #C82930; stroke-width: 1.0;" width="6" x="1156.34" y="283.8047"/><text fill="#000000" font-family="sans-serif" font-size="11" lengthAdjust="spacingAndGlyphs" textLength="88" x="1168.34" y="290.0151">messageDialog</text><line style="stroke: #A80036; stroke-width: 1.5;" x1="1149.34" x2="1342.34" y1="296.6094" y2="296.6094"/><text fill="#000000" font-family="sans-serif" font-size="11" lengthAdjust="spacingAndGlyphs" textLength="106" x="1168.34" y="310.8198">constructor(board)</text><text fill="#000000" font-family="sans-serif" font-size="11" lengthAdjust="spacingAndGlyphs" textLength="46" x="1168.34" y="323.6245">render()</text><rect fill="#F24D5C" height="6" style="stroke: #C82930; stroke-width: 1.0;" width="6" x="1156.34" y="330.2188"/><text fill="#000000" font-family="sans-serif" font-size="11" lengthAdjust="spacingAndGlyphs" textLength="70" x="1168.34" y="336.4292">getRow(row)</text><text fill="#000000" font-family="sans-serif" font-size="11" lengthAdjust="spacingAndGlyphs" textLength="169" x="1168.34" y="349.2339">addUpdateListener(onUpdate)</text><text fill="#000000" font-family="sans-serif" font-size="11" lengthAdjust="spacingAndGlyphs" textLength="89" x="1168.34" y="362.0386">updateResults()</text><text fill="#000000" font-family="sans-serif" font-size="11" lengthAdjust="spacingAndGlyphs" textLength="136" x="1168.34" y="374.8433">validateColumn(column)</text><!--MD5=[a30167d0edf1cd591c2dcaeebfa6e35e]
class MessageDialog--><rect fill="#FEFECE" filter="url(#f1wuvm0xc51r1d)" height="112.0234" id="MessageDialog" style="stroke: #A80036; stroke-width: 1.5;" width="155" x="1168.34" y="454"/><ellipse cx="1195.94" cy="470" fill="#ADD1B2" rx="11" ry="11" style="stroke: #A80036; stroke-width: 1.0;"/><path d="M1198.9087,475.6406 Q1198.3306,475.9375 1197.69,476.0781 Q1197.0494,476.2344 1196.3462,476.2344 Q1193.8462,476.2344 1192.5181,474.5938 Q1191.2056,472.9375 1191.2056,469.8125 Q1191.2056,466.6875 1192.5181,465.0313 Q1193.8462,463.375 1196.3462,463.375 Q1197.0494,463.375 1197.69,463.5313 Q1198.3462,463.6875 1198.9087,463.9844 L1198.9087,466.7031 Q1198.2837,466.125 1197.69,465.8594 Q1197.0962,465.5781 1196.4712,465.5781 Q1195.1275,465.5781 1194.44,466.6563 Q1193.7525,467.7188 1193.7525,469.8125 Q1193.7525,471.9063 1194.44,472.9844 Q1195.1275,474.0469 1196.4712,474.0469 Q1197.0962,474.0469 1197.69,473.7813 Q1198.2837,473.5 1198.9087,472.9219 L1198.9087,475.6406 Z "/><text fill="#000000" font-family="sans-serif" font-size="12" lengthAdjust="spacingAndGlyphs" textLength="95" x="1212.74" y="474.1543">MessageDialog</text><line style="stroke: #A80036; stroke-width: 1.5;" x1="1169.34" x2="1322.34" y1="486" y2="486"/><rect fill="none" height="6" style="stroke: #C82930; stroke-width: 1.0;" width="6" x="1176.34" y="494"/><text fill="#000000" font-family="sans-serif" font-size="11" lengthAdjust="spacingAndGlyphs" textLength="33" x="1188.34" y="500.2104">board</text><rect fill="none" height="6" style="stroke: #C82930; stroke-width: 1.0;" width="6" x="1176.34" y="506.8047"/><text fill="#000000" font-family="sans-serif" font-size="11" lengthAdjust="spacingAndGlyphs" textLength="35" x="1188.34" y="513.0151">article</text><line style="stroke: #A80036; stroke-width: 1.5;" x1="1169.34" x2="1322.34" y1="519.6094" y2="519.6094"/><text fill="#000000" font-family="sans-serif" font-size="11" lengthAdjust="spacingAndGlyphs" textLength="106" x="1174.34" y="533.8198">constructor(board)</text><text fill="#000000" font-family="sans-serif" font-size="11" lengthAdjust="spacingAndGlyphs" textLength="89" x="1174.34" y="546.6245">updateResults()</text><text fill="#000000" font-family="sans-serif" font-size="11" lengthAdjust="spacingAndGlyphs" textLength="143" x="1174.34" y="559.4292">updateValidation(column)</text><!--MD5=[0f1adae5684a082996b24e2018afd4c9]
class TurnView--><rect fill="#FEFECE" filter="url(#f1wuvm0xc51r1d)" height="124.8281" id="TurnView" style="stroke: #A80036; stroke-width: 1.5;" width="221" x="452.34" y="243.5"/><ellipse cx="530.59" cy="259.5" fill="#ADD1B2" rx="11" ry="11" style="stroke: #A80036; stroke-width: 1.0;"/><path d="M533.5587,265.1406 Q532.9806,265.4375 532.34,265.5781 Q531.6994,265.7344 530.9962,265.7344 Q528.4962,265.7344 527.1681,264.0938 Q525.8556,262.4375 525.8556,259.3125 Q525.8556,256.1875 527.1681,254.5313 Q528.4962,252.875 530.9962,252.875 Q531.6994,252.875 532.34,253.0313 Q532.9962,253.1875 533.5587,253.4844 L533.5587,256.2031 Q532.9337,255.625 532.34,255.3594 Q531.7462,255.0781 531.1212,255.0781 Q529.7775,255.0781 529.09,256.1563 Q528.4025,257.2188 528.4025,259.3125 Q528.4025,261.4063 529.09,262.4844 Q529.7775,263.5469 531.1212,263.5469 Q531.7462,263.5469 532.34,263.2813 Q532.9337,263 533.5587,262.4219 L533.5587,265.1406 Z "/><text fill="#000000" font-family="sans-serif" font-size="12" lengthAdjust="spacingAndGlyphs" textLength="56" x="551.09" y="263.6543">TurnView</text><line style="stroke: #A80036; stroke-width: 1.5;" x1="453.34" x2="672.34" y1="275.5" y2="275.5"/><rect fill="none" height="6" style="stroke: #C82930; stroke-width: 1.0;" width="6" x="460.34" y="283.5"/><text fill="#000000" font-family="sans-serif" font-size="11" lengthAdjust="spacingAndGlyphs" textLength="23" x="472.34" y="289.7104">turn</text><line style="stroke: #A80036; stroke-width: 1.5;" x1="453.34" x2="672.34" y1="296.3047" y2="296.3047"/><text fill="#000000" font-family="sans-serif" font-size="11" lengthAdjust="spacingAndGlyphs" textLength="96" x="472.34" y="310.5151">constructor(turn)</text><polygon fill="#FFFF44" points="463.34,315.1094,467.34,319.1094,463.34,323.1094,459.34,319.1094" style="stroke: #B38D22; stroke-width: 1.0;"/><text fill="#000000" font-family="sans-serif" font-size="11" lengthAdjust="spacingAndGlyphs" textLength="47" x="472.34" y="323.3198">update()</text><text fill="#000000" font-family="sans-serif" font-size="11" lengthAdjust="spacingAndGlyphs" textLength="109" x="472.34" y="336.1245">dropToken(column)</text><text fill="#000000" font-family="sans-serif" font-size="11" lengthAdjust="spacingAndGlyphs" textLength="154" x="472.34" y="348.9292">visitUserPlayer(userPlayer)</text><text fill="#000000" font-family="sans-serif" font-size="11" lengthAdjust="spacingAndGlyphs" textLength="195" x="472.34" y="361.7339">visitMachinePlayer(machinePlayer)</text><!--MD5=[ad8a22dfe00e98201372753a5cf2c12a]
class StorageView--><rect fill="#FEFECE" filter="url(#f1wuvm0xc51r1d)" height="137.6328" id="StorageView" style="stroke: #A80036; stroke-width: 1.5;" width="264" x="151.84" y="441"/><ellipse cx="240.59" cy="457" fill="#ADD1B2" rx="11" ry="11" style="stroke: #A80036; stroke-width: 1.0;"/><path d="M243.5588,462.6406 Q242.9806,462.9375 242.34,463.0781 Q241.6994,463.2344 240.9963,463.2344 Q238.4963,463.2344 237.1681,461.5938 Q235.8556,459.9375 235.8556,456.8125 Q235.8556,453.6875 237.1681,452.0313 Q238.4963,450.375 240.9963,450.375 Q241.6994,450.375 242.34,450.5313 Q242.9963,450.6875 243.5588,450.9844 L243.5588,453.7031 Q242.9338,453.125 242.34,452.8594 Q241.7463,452.5781 241.1213,452.5781 Q239.7775,452.5781 239.09,453.6563 Q238.4025,454.7188 238.4025,456.8125 Q238.4025,458.9063 239.09,459.9844 Q239.7775,461.0469 241.1213,461.0469 Q241.7463,461.0469 242.34,460.7813 Q242.9338,460.5 243.5588,459.9219 L243.5588,462.6406 Z "/><text fill="#000000" font-family="sans-serif" font-size="12" lengthAdjust="spacingAndGlyphs" textLength="78" x="261.09" y="461.1543">StorageView</text><line style="stroke: #A80036; stroke-width: 1.5;" x1="152.84" x2="414.84" y1="473" y2="473"/><rect fill="none" height="6" style="stroke: #C82930; stroke-width: 1.0;" width="6" x="159.84" y="481"/><text fill="#000000" font-family="sans-serif" font-size="11" lengthAdjust="spacingAndGlyphs" textLength="77" x="171.84" y="487.2104">gameStorage</text><rect fill="none" height="6" style="stroke: #C82930; stroke-width: 1.0;" width="6" x="159.84" y="493.8047"/><text fill="#000000" font-family="sans-serif" font-size="11" lengthAdjust="spacingAndGlyphs" textLength="105" x="171.84" y="500.0151">loadGameCallback</text><line style="stroke: #A80036; stroke-width: 1.5;" x1="152.84" x2="414.84" y1="506.6094" y2="506.6094"/><text fill="#000000" font-family="sans-serif" font-size="11" lengthAdjust="spacingAndGlyphs" textLength="179" x="171.84" y="520.8198">constructor(loadGameCallBack)</text><text fill="#000000" font-family="sans-serif" font-size="11" lengthAdjust="spacingAndGlyphs" textLength="78" x="171.84" y="533.6245">render(game)</text><rect fill="#F24D5C" height="6" style="stroke: #C82930; stroke-width: 1.0;" width="6" x="159.84" y="540.2188"/><text fill="#000000" font-family="sans-serif" font-size="11" lengthAdjust="spacingAndGlyphs" textLength="102" x="171.84" y="546.4292">getSavedGames()</text><rect fill="#F24D5C" height="6" style="stroke: #C82930; stroke-width: 1.0;" width="6" x="159.84" y="553.0234"/><text fill="#000000" font-family="sans-serif" font-size="11" lengthAdjust="spacingAndGlyphs" textLength="238" x="171.84" y="559.2339">createDeleteLabel(gameElement, gameId)</text><text fill="#000000" font-family="sans-serif" font-size="11" lengthAdjust="spacingAndGlyphs" textLength="126" x="171.84" y="572.0386">getGameById(gameId)</text><!--MD5=[6ecdb2f0741bbdc7d9fd65826064737f]
class StorageDialog--><rect fill="#FEFECE" filter="url(#f1wuvm0xc51r1d)" height="60.8047" id="StorageDialog" style="stroke: #A80036; stroke-width: 1.5;" width="130" x="41.84" y="658"/><ellipse cx="60.89" cy="674" fill="#ADD1B2" rx="11" ry="11" style="stroke: #A80036; stroke-width: 1.0;"/><path d="M63.8588,679.6406 Q63.2806,679.9375 62.64,680.0781 Q61.9994,680.2344 61.2963,680.2344 Q58.7963,680.2344 57.4681,678.5938 Q56.1556,676.9375 56.1556,673.8125 Q56.1556,670.6875 57.4681,669.0313 Q58.7963,667.375 61.2963,667.375 Q61.9994,667.375 62.64,667.5313 Q63.2963,667.6875 63.8588,667.9844 L63.8588,670.7031 Q63.2338,670.125 62.64,669.8594 Q62.0463,669.5781 61.4213,669.5781 Q60.0775,669.5781 59.39,670.6563 Q58.7025,671.7188 58.7025,673.8125 Q58.7025,675.9063 59.39,676.9844 Q60.0775,678.0469 61.4213,678.0469 Q62.0463,678.0469 62.64,677.7813 Q63.2338,677.5 63.8588,676.9219 L63.8588,679.6406 Z "/><text fill="#000000" font-family="sans-serif" font-size="12" lengthAdjust="spacingAndGlyphs" textLength="89" x="75.79" y="678.1543">StorageDialog</text><line style="stroke: #A80036; stroke-width: 1.5;" x1="42.84" x2="170.84" y1="690" y2="690"/><line style="stroke: #A80036; stroke-width: 1.5;" x1="42.84" x2="170.84" y1="698" y2="698"/><text fill="#000000" font-family="sans-serif" font-size="11" lengthAdjust="spacingAndGlyphs" textLength="118" x="47.84" y="712.2104">constructor(callback)</text><!--MD5=[1be59dcd23ec2312ff2047e81e3afc59]
class GameStorage--><rect fill="#FEFECE" filter="url(#f1wuvm0xc51r1d)" height="99.2188" id="GameStorage" style="stroke: #A80036; stroke-width: 1.5;" width="138" x="214.84" y="639"/><ellipse cx="238.84" cy="655" fill="#ADD1B2" rx="11" ry="11" style="stroke: #A80036; stroke-width: 1.0;"/><path d="M241.8088,660.6406 Q241.2306,660.9375 240.59,661.0781 Q239.9494,661.2344 239.2463,661.2344 Q236.7463,661.2344 235.4181,659.5938 Q234.1056,657.9375 234.1056,654.8125 Q234.1056,651.6875 235.4181,650.0313 Q236.7463,648.375 239.2463,648.375 Q239.9494,648.375 240.59,648.5313 Q241.2463,648.6875 241.8088,648.9844 L241.8088,651.7031 Q241.1838,651.125 240.59,650.8594 Q239.9963,650.5781 239.3713,650.5781 Q238.0275,650.5781 237.34,651.6563 Q236.6525,652.7188 236.6525,654.8125 Q236.6525,656.9063 237.34,657.9844 Q238.0275,659.0469 239.3713,659.0469 Q239.9963,659.0469 240.59,658.7813 Q241.1838,658.5 241.8088,657.9219 L241.8088,660.6406 Z "/><text fill="#000000" font-family="sans-serif" font-size="12" lengthAdjust="spacingAndGlyphs" textLength="86" x="254.84" y="659.1543">GameStorage</text><line style="stroke: #A80036; stroke-width: 1.5;" x1="215.84" x2="351.84" y1="671" y2="671"/><line style="stroke: #A80036; stroke-width: 1.5;" x1="215.84" x2="351.84" y1="679" y2="679"/><text fill="#000000" font-family="sans-serif" font-size="11" lengthAdjust="spacingAndGlyphs" textLength="97" x="220.84" y="693.2104">getAllGamesIds()</text><text fill="#000000" font-family="sans-serif" font-size="11" lengthAdjust="spacingAndGlyphs" textLength="101" x="220.84" y="706.0151">saveGame(game)</text><text fill="#000000" font-family="sans-serif" font-size="11" lengthAdjust="spacingAndGlyphs" textLength="126" x="220.84" y="718.8198">getGameById(gameId)</text><text fill="#000000" font-family="sans-serif" font-size="11" lengthAdjust="spacingAndGlyphs" textLength="119" x="220.84" y="731.6245">deleteGame(gameId)</text><!--MD5=[36cecfbbd0ac4930009be74a136cac5e]
link GameView to NumPlayersDialog--><path d="M411.62,162.22 C375.97,199.17 334.19,242.46 306.07,271.61 " fill="none" id="GameView-&gt;NumPlayersDialog" style="stroke: #A80036; stroke-width: 1.0; stroke-dasharray: 7.0,7.0;"/><polygon fill="#A80036" points="302.36,275.45,311.4866,271.7479,305.8307,271.8508,305.7278,266.1949,302.36,275.45" style="stroke: #A80036; stroke-width: 1.0;"/><!--MD5=[91950ed4a576afead0392f1fc0195c03]
link GameView to ResumeDialog--><path d="M411.77,116.43 C349.56,141.33 256.93,182.27 183.84,231 C166.34,242.67 148.78,257.92 134.43,271.55 " fill="none" id="GameView-&gt;ResumeDialog" style="stroke: #A80036; stroke-width: 1.0; stroke-dasharray: 7.0,7.0;"/><polygon fill="#A80036" points="130.47,275.34,139.7387,272.0096,134.0832,271.8839,134.2089,266.2284,130.47,275.34" style="stroke: #A80036; stroke-width: 1.0;"/><!--MD5=[27afd30be53ce2c3c1bdfd74a9a249d9]
reverse link ButtonsDialog to NumPlayersDialog--><path d="M158.81,161.55 C189.86,200.27 226.62,246.12 250.08,275.37 " fill="none" id="ButtonsDialog&lt;-NumPlayersDialog" style="stroke: #A80036; stroke-width: 1.0;"/><polygon fill="none" points="153.18,165.72,146.13,145.74,164.11,156.96,153.18,165.72" style="stroke: #A80036; stroke-width: 1.0;"/><!--MD5=[2e81de458af72588e0bb670eea027b04]
reverse link ButtonsDialog to ResumeDialog--><path d="M101.84,165.98 C101.84,203.72 101.84,247.22 101.84,275.37 " fill="none" id="ButtonsDialog&lt;-ResumeDialog" style="stroke: #A80036; stroke-width: 1.0;"/><polygon fill="none" points="94.84,165.74,101.84,145.74,108.84,165.74,94.84,165.74" style="stroke: #A80036; stroke-width: 1.0;"/><!--MD5=[68692b7445e8124699a5a0ef018bbca4]
link BoardView to MessageDialog--><path d="M1245.84,381.07 C1245.84,403.38 1245.84,427.58 1245.84,448.86 " fill="none" id="BoardView-&gt;MessageDialog" style="stroke: #A80036; stroke-width: 1.0; stroke-dasharray: 7.0,7.0;"/><polygon fill="#A80036" points="1245.84,453.92,1249.84,444.92,1245.84,448.92,1241.84,444.92,1245.84,453.92" style="stroke: #A80036; stroke-width: 1.0;"/><!--MD5=[f46e528147d41d3b8d7f0a5ce0a9ccec]
link StorageView to StorageDialog--><path d="M215.41,579.24 C189.66,604.92 161.52,632.98 140.34,654.1 " fill="none" id="StorageView-&gt;StorageDialog" style="stroke: #A80036; stroke-width: 1.0; stroke-dasharray: 7.0,7.0;"/><polygon fill="#A80036" points="136.73,657.69,145.9295,654.173,140.2727,654.1616,140.2841,648.5048,136.73,657.69" style="stroke: #A80036; stroke-width: 1.0;"/><!--MD5=[da3b8f4caad97a05166ffd74344d0fb5]
reverse link ButtonsDialog to StorageDialog--><path d="M49.1,163.07 C36.71,183.99 25.26,207.53 18.84,231 C-24.46,389.44 56.69,584.45 91.79,657.77 " fill="none" id="ButtonsDialog&lt;-StorageDialog" style="stroke: #A80036; stroke-width: 1.0;"/><polygon fill="none" points="43.35,159.06,59.88,145.8,55.23,166.47,43.35,159.06" style="stroke: #A80036; stroke-width: 1.0;"/><!--MD5=[0259dad7dfa77311577eb280fa8db5bc]
link GameView to StorageView--><path d="M448.0839,182.2424 C448.0839,182.2424 395.42,316.77 362.84,381 C354.71,397.02 345.25,413.68 335.75,429.47 " fill="none" id="GameView-StorageView" style="stroke: #A80036; stroke-width: 1.0;"/><polygon fill="#A80036" points="328.85,440.79,336.9465,435.1823,331.4499,436.5191,330.1131,431.0225,328.85,440.79" style="stroke: #A80036; stroke-width: 1.0;"/><line style="stroke: #A80036; stroke-width: 1.0;" x1="331.4499" x2="335.615" y1="436.5191" y2="429.695"/><polygon fill="#A80036" points="452.28,171,446.4345,175.2225,448.0839,182.2424,453.9294,178.0199,452.28,171" style="stroke: #A80036; stroke-width: 1.0;"/><!--MD5=[d19411412648f7a539c068eca0971f0b]
link StorageView to GameStorage--><path d="M283.84,591.24 C283.84,591.24 283.84,614.9 283.84,625.63 " fill="none" id="StorageView-GameStorage" style="stroke: #A80036; stroke-width: 1.0;"/><polygon fill="#A80036" points="283.84,638.86,287.84,629.86,283.84,633.86,279.84,629.86,283.84,638.86" style="stroke: #A80036; stroke-width: 1.0;"/><line style="stroke: #A80036; stroke-width: 1.0;" x1="283.84" x2="283.84" y1="633.86" y2="625.86"/><polygon fill="#A80036" points="283.84,579.24,279.84,585.24,283.84,591.24,287.84,585.24,283.84,579.24" style="stroke: #A80036; stroke-width: 1.0;"/><!--MD5=[ca04c0eda4482e2f74e8c9b82fcb79bf]
link GameView to Game--><path d="M550,135.73 C616.91,179.48 715.91,244.23 770.03,279.62 " fill="none" id="GameView-&gt;Game" style="stroke: #A80036; stroke-width: 1.0;"/><polygon fill="#A80036" points="774.48,282.53,769.1446,274.2515,770.2979,279.7895,764.7599,280.9428,774.48,282.53" style="stroke: #A80036; stroke-width: 1.0;"/><!--MD5=[7df4e8fc8ef15cc8ca9effbcc2622283]
link GameView to TurnView--><path d="M516.0056,182.4986 C516.0056,182.4986 528.64,215.53 534.47,230.79 " fill="none" id="GameView-TurnView" style="stroke: #A80036; stroke-width: 1.0;"/><polygon fill="#A80036" points="539.27,243.35,539.792,233.515,537.4843,238.6797,532.3196,236.3721,539.27,243.35" style="stroke: #A80036; stroke-width: 1.0;"/><line style="stroke: #A80036; stroke-width: 1.0;" x1="537.4843" x2="534.63" y1="238.6797" y2="231.205"/><polygon fill="#A80036" points="511.72,171.29,510.1266,178.3229,516.0056,182.4986,517.599,175.4658,511.72,171.29" style="stroke: #A80036; stroke-width: 1.0;"/><!--MD5=[c2d12ea21a8ed9d7b07c5ed2223bb09d]
link GameView to BoardView--><path d="M561.8772,98.3094 C561.8772,98.3094 937.83,149.47 1132.84,231 C1133.95,231.47 1135.07,231.94 1136.18,232.43 " fill="none" id="GameView-BoardView" style="stroke: #A80036; stroke-width: 1.0;"/><polygon fill="#A80036" points="1148.1,238.02,1141.6468,230.5799,1143.5722,235.899,1138.2531,237.8244,1148.1,238.02" style="stroke: #A80036; stroke-width: 1.0;"/><line style="stroke: #A80036; stroke-width: 1.0;" x1="1143.5722" x2="1136.33" y1="235.899" y2="232.5"/><polygon fill="#A80036" points="549.95,96.99,555.4738,101.6254,561.8772,98.3094,556.3534,93.6739,549.95,96.99" style="stroke: #A80036; stroke-width: 1.0;"/><!--MD5=[87ac28f7ff846e55e34c2c863c6ff220]
link BoardView to Board--><path d="M1184.68,381.17 C1171.81,399.79 1159.52,420.37 1150.84,441 C1098.75,564.84 1085.93,727.61 1082.82,792.51 " fill="none" id="BoardView-&gt;Board" style="stroke: #A80036; stroke-width: 1.0;"/><polygon fill="#A80036" points="1082.58,797.75,1086.9868,788.9421,1082.8083,792.7552,1078.9952,788.5767,1082.58,797.75" style="stroke: #A80036; stroke-width: 1.0;"/><!--MD5=[b90c15517c5612720f6d3b5735a27f0e]
link TurnView to Turn--><path d="M637.98,368.7 C684.42,406.83 741.64,453.82 776.66,482.58 " fill="none" id="TurnView-&gt;Turn" style="stroke: #A80036; stroke-width: 1.0;"/><polygon fill="#A80036" points="780.82,485.99,776.4086,477.1843,776.9579,482.8145,771.3277,483.3638,780.82,485.99" style="stroke: #A80036; stroke-width: 1.0;"/><!--MD5=[b9f1e39ad85d50fe6f3a071a4341c320]
link Game to Turn--><path d="M808.84,342.17 C808.84,342.17 808.84,435.75 808.84,472.33 " fill="none" id="Game-Turn" style="stroke: #A80036; stroke-width: 1.0;"/><polygon fill="#A80036" points="808.84,485.79,812.84,476.79,808.84,480.79,804.84,476.79,808.84,485.79" style="stroke: #A80036; stroke-width: 1.0;"/><line style="stroke: #A80036; stroke-width: 1.0;" x1="808.84" x2="808.84" y1="480.79" y2="472.79"/><polygon fill="#A80036" points="808.84,330.17,804.84,336.17,808.84,342.17,812.84,336.17,808.84,330.17" style="stroke: #A80036; stroke-width: 1.0;"/><!--MD5=[d81713d91ad05be3b975338c4816ee0b]
link Turn to Player--><path d="M813.6014,545.96 C813.6014,545.96 823.79,620.95 827.93,651.42 " fill="none" id="Turn-Player" style="stroke: #A80036; stroke-width: 1.0;"/><polygon fill="#A80036" points="829.7,664.42,832.4576,654.9651,829.0298,659.4651,824.5298,656.0373,829.7,664.42" style="stroke: #A80036; stroke-width: 1.0;"/><line style="stroke: #A80036; stroke-width: 1.0;" x1="829.0298" x2="827.95" y1="659.4651" y2="651.54"/><polygon fill="#A80036" points="811.98,534.07,808.8274,540.5554,813.6014,545.96,816.754,539.4745,811.98,534.07" style="stroke: #A80036; stroke-width: 1.0;"/><text fill="#000000" font-family="sans-serif" font-size="13" lengthAdjust="spacingAndGlyphs" textLength="8" x="819.8704" y="653.4115">2</text><!--MD5=[15c8f9ca3aac13d865864b4eb5314ef1]
link Game to Board--><path d="M826.7286,340.6781 C826.7286,340.6781 1013.73,692.77 1063.46,786.39 " fill="none" id="Game-Board" style="stroke: #A80036; stroke-width: 1.0;"/><polygon fill="#A80036" points="1069.61,797.98,1068.9162,788.1556,1067.2625,793.5653,1061.8527,791.9116,1069.61,797.98" style="stroke: #A80036; stroke-width: 1.0;"/><line style="stroke: #A80036; stroke-width: 1.0;" x1="1067.2625" x2="1063.515" y1="793.5653" y2="786.495"/><polygon fill="#A80036" points="821.1,330.08,820.3816,337.2552,826.7286,340.6781,827.447,333.5028,821.1,330.08" style="stroke: #A80036; stroke-width: 1.0;"/><!--MD5=[c1f7e88598f78d9459764ed93737eb14]
link Player to Board--><path d="M867.99,708.06 C914.09,732.41 994.74,775 1042.73,800.35 " fill="none" id="Player-&gt;Board" style="stroke: #A80036; stroke-width: 1.0;"/><polygon fill="#A80036" points="1047.27,802.74,1041.1852,794.9957,1042.8504,800.4019,1037.4442,802.0671,1047.27,802.74" style="stroke: #A80036; stroke-width: 1.0;"/><!--MD5=[83e73cc634b6a0fa1d7bbb56c08baf04]
reverse link Player to RandomMachinePlayer--><path d="M819.59,732 C812.8,753.76 804.8,779.42 799.14,797.58 " fill="none" id="Player&lt;-RandomMachinePlayer" style="stroke: #A80036; stroke-width: 1.0;"/><polygon fill="none" points="812.97,729.72,825.6,712.71,826.33,733.88,812.97,729.72" style="stroke: #A80036; stroke-width: 1.0;"/><!--MD5=[5f3eff46017ea40d2ca7f35522a8d7fb]
reverse link Player to UserPlayer--><path d="M869.94,727.03 C892.4,749.75 920.35,778.02 939.69,797.58 " fill="none" id="Player&lt;-UserPlayer" style="stroke: #A80036; stroke-width: 1.0;"/><polygon fill="none" points="864.86,731.85,855.78,712.71,874.82,722.01,864.86,731.85" style="stroke: #A80036; stroke-width: 1.0;"/><!--MD5=[a845e431d48e0e98c146e038e29ead12]
@startuml

class GameView {
-game
-boardView
-turnView
-storageView
  -init()
  -onUpdate(column)
  visitUserPlayer() 
  visitMachinePlayer()
  -loadGame()
}

GameView ..> NumPlayersDialog
GameView ..> ResumeDialog

class NumPlayersDialog extends ButtonsDialog {
    constructor(callback) 
}

class ResumeDialog extends ButtonsDialog {
    constructor(callback) 
}

class ResumeDialog

class BoardView {
-board
-messageDialog
  constructor(board)
  render()
  -getRow(row)
  addUpdateListener(onUpdate)
  updateResults()
  validateColumn(column)
}

 class MessageDialog {
 -board
 -article
    constructor(board) 
    updateResults()
    updateValidation(column)
}


BoardView ..> MessageDialog

class TurnView {
-turn
  constructor(turn)
  #update() 
  dropToken(column) 
  visitUserPlayer(userPlayer) 
  visitMachinePlayer(machinePlayer)
}

class ButtonsDialog {
-buttons
createButtons()
addButton()
deleteButtons()
getButtons()
}

class StorageView{
-gameStorage
-loadGameCallback
constructor(loadGameCallBack)
render(game)
-getSavedGames()
-createDeleteLabel(gameElement, gameId)
getGameById(gameId)
}

StorageView ..> StorageDialog

class GameStorage{
getAllGamesIds()
saveGame(game)
getGameById(gameId)
deleteGame(gameId)
}

class StorageDialog extends ButtonsDialog{
constructor(callback)
}

package models {
class Game
class Turn
abstract class Player
class RandomMachinePlayer
class UserPlayer
class Board
}

GameView *- -down-> StorageView
StorageView *-down-> GameStorage

GameView -down-> Game
GameView *-down-> TurnView
GameView *-down-> BoardView
BoardView -down-> Board
TurnView -down-> Turn
Game *-down-> Turn
Turn *-down-> "2" Player
Game *-down-> Board
Player -down-> Board
Player <|- - RandomMachinePlayer
Player <|- - UserPlayer

@enduml

PlantUML version 1.2020.02(Sun Mar 01 06:22:07 VET 2020)
(GPL source distribution)
Java Runtime: OpenJDK Runtime Environment
JVM: OpenJDK 64-Bit Server VM
Java Version: 11.0.17+8-post-Ubuntu-1ubuntu222.04
Operating System: Linux
Default Encoding: UTF-8
Language: en
Country: US
--></g></svg>