<?xml version="1.0" encoding="UTF-8" standalone="no"?><svg xmlns="http://www.w3.org/2000/svg" xmlns:xlink="http://www.w3.org/1999/xlink" contentScriptType="application/ecmascript" contentStyleType="text/css" height="984px" preserveAspectRatio="none" style="width:567px;height:984px;" version="1.1" viewBox="0 0 567 984" width="567px" zoomAndPan="magnify"><defs><filter height="300%" id="fh7fzdkv42bk7" width="300%" x="-1" y="-1"><feGaussianBlur result="blurOut" stdDeviation="2.0"/><feColorMatrix in="blurOut" result="blurOut2" type="matrix" values="0 0 0 0 0 0 0 0 0 0 0 0 0 0 0 0 0 0 .4 0"/><feOffset dx="4.0" dy="4.0" in="blurOut2" result="blurOut3"/><feBlend in="SourceGraphic" in2="blurOut3" mode="normal"/></filter></defs><g><!--MD5=[5d3822d29342fbd355d1b65ea3562ec9]
class GameView--><rect fill="#FEFECE" filter="url(#fh7fzdkv42bk7)" height="150.4375" id="GameView" style="stroke: #A80036; stroke-width: 1.5;" width="329" x="6" y="8"/><ellipse cx="134.25" cy="24" fill="#ADD1B2" rx="11" ry="11" style="stroke: #A80036; stroke-width: 1.0;"/><path d="M137.2188,29.6406 Q136.6406,29.9375 136,30.0781 Q135.3594,30.2344 134.6563,30.2344 Q132.1563,30.2344 130.8281,28.5938 Q129.5156,26.9375 129.5156,23.8125 Q129.5156,20.6875 130.8281,19.0313 Q132.1563,17.375 134.6563,17.375 Q135.3594,17.375 136,17.5313 Q136.6563,17.6875 137.2188,17.9844 L137.2188,20.7031 Q136.5938,20.125 136,19.8594 Q135.4063,19.5781 134.7813,19.5781 Q133.4375,19.5781 132.75,20.6563 Q132.0625,21.7188 132.0625,23.8125 Q132.0625,25.9063 132.75,26.9844 Q133.4375,28.0469 134.7813,28.0469 Q135.4063,28.0469 136,27.7813 Q136.5938,27.5 137.2188,26.9219 L137.2188,29.6406 Z "/><text fill="#000000" font-family="sans-serif" font-size="12" lengthAdjust="spacingAndGlyphs" textLength="64" x="154.75" y="28.1543">GameView</text><line style="stroke: #A80036; stroke-width: 1.5;" x1="7" x2="334" y1="40" y2="40"/><rect fill="none" height="6" style="stroke: #C82930; stroke-width: 1.0;" width="6" x="14" y="48"/><text fill="#000000" font-family="sans-serif" font-size="11" lengthAdjust="spacingAndGlyphs" textLength="32" x="26" y="54.2104">game</text><rect fill="none" height="6" style="stroke: #C82930; stroke-width: 1.0;" width="6" x="14" y="60.8047"/><text fill="#000000" font-family="sans-serif" font-size="11" lengthAdjust="spacingAndGlyphs" textLength="49" x="26" y="67.0151">turnView</text><rect fill="none" height="6" style="stroke: #C82930; stroke-width: 1.0;" width="6" x="14" y="73.6094"/><text fill="#000000" font-family="sans-serif" font-size="11" lengthAdjust="spacingAndGlyphs" textLength="59" x="26" y="79.8198">boardView</text><line style="stroke: #A80036; stroke-width: 1.5;" x1="7" x2="334" y1="86.4141" y2="86.4141"/><text fill="#000000" font-family="sans-serif" font-size="11" lengthAdjust="spacingAndGlyphs" textLength="70" x="26" y="100.6245">askPlayers()</text><rect fill="#F24D5C" height="6" style="stroke: #C82930; stroke-width: 1.0;" width="6" x="14" y="107.2188"/><text fill="#000000" font-family="sans-serif" font-size="11" lengthAdjust="spacingAndGlyphs" textLength="303" x="26" y="113.4292">createNumOfPlayerButton(buttonText, numOfPlayers)</text><rect fill="#F24D5C" height="6" style="stroke: #C82930; stroke-width: 1.0;" width="6" x="14" y="120.0234"/><text fill="#000000" font-family="sans-serif" font-size="11" lengthAdjust="spacingAndGlyphs" textLength="173" x="26" y="126.2339">startNewGame(numOfPlayers)</text><rect fill="#F24D5C" height="6" style="stroke: #C82930; stroke-width: 1.0;" width="6" x="14" y="132.8281"/><text fill="#000000" font-family="sans-serif" font-size="11" lengthAdjust="spacingAndGlyphs" textLength="109" x="26" y="139.0386">dropToken(column)</text><rect fill="#F24D5C" height="6" style="stroke: #C82930; stroke-width: 1.0;" width="6" x="14" y="145.6328"/><text fill="#000000" font-family="sans-serif" font-size="11" lengthAdjust="spacingAndGlyphs" textLength="125" x="26" y="151.8433">drawPlayAgainDialog()</text><!--MD5=[0f1adae5684a082996b24e2018afd4c9]
class TurnView--><rect fill="#FEFECE" filter="url(#fh7fzdkv42bk7)" height="124.8281" id="TurnView" style="stroke: #A80036; stroke-width: 1.5;" width="207" x="302" y="224.5"/><ellipse cx="373.25" cy="240.5" fill="#ADD1B2" rx="11" ry="11" style="stroke: #A80036; stroke-width: 1.0;"/><path d="M376.2188,246.1406 Q375.6406,246.4375 375,246.5781 Q374.3594,246.7344 373.6563,246.7344 Q371.1563,246.7344 369.8281,245.0938 Q368.5156,243.4375 368.5156,240.3125 Q368.5156,237.1875 369.8281,235.5313 Q371.1563,233.875 373.6563,233.875 Q374.3594,233.875 375,234.0313 Q375.6563,234.1875 376.2188,234.4844 L376.2188,237.2031 Q375.5938,236.625 375,236.3594 Q374.4063,236.0781 373.7813,236.0781 Q372.4375,236.0781 371.75,237.1563 Q371.0625,238.2188 371.0625,240.3125 Q371.0625,242.4063 371.75,243.4844 Q372.4375,244.5469 373.7813,244.5469 Q374.4063,244.5469 375,244.2813 Q375.5938,244 376.2188,243.4219 L376.2188,246.1406 Z "/><text fill="#000000" font-family="sans-serif" font-size="12" lengthAdjust="spacingAndGlyphs" textLength="56" x="393.75" y="244.6543">TurnView</text><line style="stroke: #A80036; stroke-width: 1.5;" x1="303" x2="508" y1="256.5" y2="256.5"/><rect fill="none" height="6" style="stroke: #C82930; stroke-width: 1.0;" width="6" x="310" y="264.5"/><text fill="#000000" font-family="sans-serif" font-size="11" lengthAdjust="spacingAndGlyphs" textLength="23" x="322" y="270.7104">turn</text><line style="stroke: #A80036; stroke-width: 1.5;" x1="303" x2="508" y1="277.3047" y2="277.3047"/><text fill="#000000" font-family="sans-serif" font-size="11" lengthAdjust="spacingAndGlyphs" textLength="96" x="308" y="291.5151">constructor(turn)</text><text fill="#000000" font-family="sans-serif" font-size="11" lengthAdjust="spacingAndGlyphs" textLength="109" x="308" y="304.3198">dropToken(column)</text><text fill="#000000" font-family="sans-serif" font-size="11" lengthAdjust="spacingAndGlyphs" textLength="154" x="308" y="317.1245">visitUserPlayer(userPlayer)</text><text fill="#000000" font-family="sans-serif" font-size="11" lengthAdjust="spacingAndGlyphs" textLength="195" x="308" y="329.9292">visitMachinePlayer(machinePlayer)</text><text fill="#000000" font-family="sans-serif" font-size="11" lengthAdjust="spacingAndGlyphs" textLength="113" x="308" y="342.7339">drawTurnMessage()</text><!--MD5=[9b237e88d697a058bd530d6510c96c00]
class BoardView--><rect fill="#FEFECE" filter="url(#fh7fzdkv42bk7)" height="137.6328" id="BoardView" style="stroke: #A80036; stroke-width: 1.5;" width="192" x="74.5" y="218"/><ellipse cx="133.75" cy="234" fill="#ADD1B2" rx="11" ry="11" style="stroke: #A80036; stroke-width: 1.0;"/><path d="M136.7188,239.6406 Q136.1406,239.9375 135.5,240.0781 Q134.8594,240.2344 134.1563,240.2344 Q131.6563,240.2344 130.3281,238.5938 Q129.0156,236.9375 129.0156,233.8125 Q129.0156,230.6875 130.3281,229.0313 Q131.6563,227.375 134.1563,227.375 Q134.8594,227.375 135.5,227.5313 Q136.1563,227.6875 136.7188,227.9844 L136.7188,230.7031 Q136.0938,230.125 135.5,229.8594 Q134.9063,229.5781 134.2813,229.5781 Q132.9375,229.5781 132.25,230.6563 Q131.5625,231.7188 131.5625,233.8125 Q131.5625,235.9063 132.25,236.9844 Q132.9375,238.0469 134.2813,238.0469 Q134.9063,238.0469 135.5,237.7813 Q136.0938,237.5 136.7188,236.9219 L136.7188,239.6406 Z "/><text fill="#000000" font-family="sans-serif" font-size="12" lengthAdjust="spacingAndGlyphs" textLength="65" x="154.25" y="238.1543">BoardView</text><line style="stroke: #A80036; stroke-width: 1.5;" x1="75.5" x2="265.5" y1="250" y2="250"/><rect fill="none" height="6" style="stroke: #C82930; stroke-width: 1.0;" width="6" x="82.5" y="258"/><text fill="#000000" font-family="sans-serif" font-size="11" lengthAdjust="spacingAndGlyphs" textLength="33" x="94.5" y="264.2104">board</text><line style="stroke: #A80036; stroke-width: 1.5;" x1="75.5" x2="265.5" y1="270.8047" y2="270.8047"/><text fill="#000000" font-family="sans-serif" font-size="11" lengthAdjust="spacingAndGlyphs" textLength="106" x="94.5" y="285.0151">constructor(board)</text><rect fill="#F24D5C" height="6" style="stroke: #C82930; stroke-width: 1.0;" width="6" x="82.5" y="291.6094"/><text fill="#000000" font-family="sans-serif" font-size="11" lengthAdjust="spacingAndGlyphs" textLength="35" x="94.5" y="297.8198">build()</text><text fill="#000000" font-family="sans-serif" font-size="11" lengthAdjust="spacingAndGlyphs" textLength="166" x="94.5" y="310.6245">setControlsCallback(callback)</text><text fill="#000000" font-family="sans-serif" font-size="11" lengthAdjust="spacingAndGlyphs" textLength="99" x="94.5" y="323.4292">removeControls()</text><text fill="#000000" font-family="sans-serif" font-size="11" lengthAdjust="spacingAndGlyphs" textLength="68" x="94.5" y="336.2339">dropToken()</text><text fill="#000000" font-family="sans-serif" font-size="11" lengthAdjust="spacingAndGlyphs" textLength="82" x="94.5" y="349.0386">resultActions()</text><!--MD5=[93d865571f3eb9eddb1d48cbc1646a59]
class MachinePlayerView--><rect fill="#FEFECE" filter="url(#fh7fzdkv42bk7)" height="73.6094" id="MachinePlayerView" style="stroke: #A80036; stroke-width: 1.5;" width="150" x="243.5" y="683"/><ellipse cx="258.5" cy="699" fill="#ADD1B2" rx="11" ry="11" style="stroke: #A80036; stroke-width: 1.0;"/><path d="M261.4688,704.6406 Q260.8906,704.9375 260.25,705.0781 Q259.6094,705.2344 258.9063,705.2344 Q256.4063,705.2344 255.0781,703.5938 Q253.7656,701.9375 253.7656,698.8125 Q253.7656,695.6875 255.0781,694.0313 Q256.4063,692.375 258.9063,692.375 Q259.6094,692.375 260.25,692.5313 Q260.9063,692.6875 261.4688,692.9844 L261.4688,695.7031 Q260.8438,695.125 260.25,694.8594 Q259.6563,694.5781 259.0313,694.5781 Q257.6875,694.5781 257,695.6563 Q256.3125,696.7188 256.3125,698.8125 Q256.3125,700.9063 257,701.9844 Q257.6875,703.0469 259.0313,703.0469 Q259.6563,703.0469 260.25,702.7813 Q260.8438,702.5 261.4688,701.9219 L261.4688,704.6406 Z "/><text fill="#000000" font-family="sans-serif" font-size="12" lengthAdjust="spacingAndGlyphs" textLength="118" x="272.5" y="703.1543">MachinePlayerView</text><line style="stroke: #A80036; stroke-width: 1.5;" x1="244.5" x2="392.5" y1="715" y2="715"/><line style="stroke: #A80036; stroke-width: 1.5;" x1="244.5" x2="392.5" y1="723" y2="723"/><text fill="#000000" font-family="sans-serif" font-size="11" lengthAdjust="spacingAndGlyphs" textLength="108" x="249.5" y="737.2104">constructor(player)</text><text fill="#000000" font-family="sans-serif" font-size="11" lengthAdjust="spacingAndGlyphs" textLength="69" x="249.5" y="750.0151">getColumn()</text><!--MD5=[af194e474b2c37e443a340884399de77]
class PlayerView--><rect fill="#FEFECE" filter="url(#fh7fzdkv42bk7)" height="99.2188" id="PlayerView" style="stroke: #A80036; stroke-width: 1.5;" width="121" x="345" y="524"/><ellipse cx="369.9" cy="540" fill="#A9DCDF" rx="11" ry="11" style="stroke: #A80036; stroke-width: 1.0;"/><path d="M370.0094,535.3438 L368.8531,540.4219 L371.1813,540.4219 L370.0094,535.3438 Z M368.525,533.1094 L371.5094,533.1094 L374.8688,545.5 L372.4156,545.5 L371.65,542.4375 L368.3688,542.4375 L367.6188,545.5 L365.1813,545.5 L368.525,533.1094 Z "/><text fill="#000000" font-family="sans-serif" font-size="12" font-style="italic" lengthAdjust="spacingAndGlyphs" textLength="67" x="386.1" y="544.1543">PlayerView</text><line style="stroke: #A80036; stroke-width: 1.5;" x1="346" x2="465" y1="556" y2="556"/><rect fill="none" height="6" style="stroke: #C82930; stroke-width: 1.0;" width="6" x="353" y="564"/><text fill="#000000" font-family="sans-serif" font-size="11" lengthAdjust="spacingAndGlyphs" textLength="35" x="365" y="570.2104">player</text><line style="stroke: #A80036; stroke-width: 1.5;" x1="346" x2="465" y1="576.8047" y2="576.8047"/><text fill="#000000" font-family="sans-serif" font-size="11" lengthAdjust="spacingAndGlyphs" textLength="108" x="351" y="591.0151">constructor(player)</text><text fill="#000000" font-family="sans-serif" font-size="11" lengthAdjust="spacingAndGlyphs" textLength="109" x="351" y="603.8198">dropToken(column)</text><text fill="#000000" font-family="sans-serif" font-size="11" lengthAdjust="spacingAndGlyphs" textLength="69" x="351" y="616.6245">getColumn()</text><!--MD5=[1fa50a3f0c715c6cbffb2c1cd24af35f]
class UserPlayerView--><rect fill="#FEFECE" filter="url(#fh7fzdkv42bk7)" height="73.6094" id="UserPlayerView" style="stroke: #A80036; stroke-width: 1.5;" width="127" x="429" y="683"/><ellipse cx="444" cy="699" fill="#ADD1B2" rx="11" ry="11" style="stroke: #A80036; stroke-width: 1.0;"/><path d="M446.9688,704.6406 Q446.3906,704.9375 445.75,705.0781 Q445.1094,705.2344 444.4063,705.2344 Q441.9063,705.2344 440.5781,703.5938 Q439.2656,701.9375 439.2656,698.8125 Q439.2656,695.6875 440.5781,694.0313 Q441.9063,692.375 444.4063,692.375 Q445.1094,692.375 445.75,692.5313 Q446.4063,692.6875 446.9688,692.9844 L446.9688,695.7031 Q446.3438,695.125 445.75,694.8594 Q445.1563,694.5781 444.5313,694.5781 Q443.1875,694.5781 442.5,695.6563 Q441.8125,696.7188 441.8125,698.8125 Q441.8125,700.9063 442.5,701.9844 Q443.1875,703.0469 444.5313,703.0469 Q445.1563,703.0469 445.75,702.7813 Q446.3438,702.5 446.9688,701.9219 L446.9688,704.6406 Z "/><text fill="#000000" font-family="sans-serif" font-size="12" lengthAdjust="spacingAndGlyphs" textLength="95" x="458" y="703.1543">UserPlayerView</text><line style="stroke: #A80036; stroke-width: 1.5;" x1="430" x2="555" y1="715" y2="715"/><line style="stroke: #A80036; stroke-width: 1.5;" x1="430" x2="555" y1="723" y2="723"/><text fill="#000000" font-family="sans-serif" font-size="11" lengthAdjust="spacingAndGlyphs" textLength="108" x="435" y="737.2104">constructor(player)</text><text fill="#000000" font-family="sans-serif" font-size="11" lengthAdjust="spacingAndGlyphs" textLength="110" x="435" y="750.0151">getColumn(column)</text><!--MD5=[2cb47ba637a0d19583e6199456f6ad0b]
class Player--><rect fill="#FEFECE" filter="url(#fh7fzdkv42bk7)" height="48" id="Player" style="stroke: #A80036; stroke-width: 1.5;" width="70" x="299.5" y="817"/><ellipse cx="314.5" cy="833" fill="#A9DCDF" rx="11" ry="11" style="stroke: #A80036; stroke-width: 1.0;"/><path d="M314.6094,828.3438 L313.4531,833.4219 L315.7813,833.4219 L314.6094,828.3438 Z M313.125,826.1094 L316.1094,826.1094 L319.4688,838.5 L317.0156,838.5 L316.25,835.4375 L312.9688,835.4375 L312.2188,838.5 L309.7813,838.5 L313.125,826.1094 Z "/><text fill="#000000" font-family="sans-serif" font-size="12" font-style="italic" lengthAdjust="spacingAndGlyphs" textLength="38" x="328.5" y="837.1543">Player</text><line style="stroke: #A80036; stroke-width: 1.5;" x1="300.5" x2="368.5" y1="849" y2="849"/><line style="stroke: #A80036; stroke-width: 1.5;" x1="300.5" x2="368.5" y1="857" y2="857"/><!--MD5=[bed9476c332430e0fd8ad70c4aac2ffe]
class RandomMachinePlayer--><rect fill="#FEFECE" filter="url(#fh7fzdkv42bk7)" height="48" id="RandomMachinePlayer" style="stroke: #A80036; stroke-width: 1.5;" width="173" x="160" y="925"/><ellipse cx="175" cy="941" fill="#ADD1B2" rx="11" ry="11" style="stroke: #A80036; stroke-width: 1.0;"/><path d="M177.9688,946.6406 Q177.3906,946.9375 176.75,947.0781 Q176.1094,947.2344 175.4063,947.2344 Q172.9063,947.2344 171.5781,945.5938 Q170.2656,943.9375 170.2656,940.8125 Q170.2656,937.6875 171.5781,936.0313 Q172.9063,934.375 175.4063,934.375 Q176.1094,934.375 176.75,934.5313 Q177.4063,934.6875 177.9688,934.9844 L177.9688,937.7031 Q177.3438,937.125 176.75,936.8594 Q176.1563,936.5781 175.5313,936.5781 Q174.1875,936.5781 173.5,937.6563 Q172.8125,938.7188 172.8125,940.8125 Q172.8125,942.9063 173.5,943.9844 Q174.1875,945.0469 175.5313,945.0469 Q176.1563,945.0469 176.75,944.7813 Q177.3438,944.5 177.9688,943.9219 L177.9688,946.6406 Z "/><text fill="#000000" font-family="sans-serif" font-size="12" lengthAdjust="spacingAndGlyphs" textLength="141" x="189" y="945.1543">RandomMachinePlayer</text><line style="stroke: #A80036; stroke-width: 1.5;" x1="161" x2="332" y1="957" y2="957"/><line style="stroke: #A80036; stroke-width: 1.5;" x1="161" x2="332" y1="965" y2="965"/><!--MD5=[d159557bab43e1f13b9627fe22d6ac69]
class UserPlayer--><rect fill="#FEFECE" filter="url(#fh7fzdkv42bk7)" height="48" id="UserPlayer" style="stroke: #A80036; stroke-width: 1.5;" width="99" x="373" y="925"/><ellipse cx="388" cy="941" fill="#ADD1B2" rx="11" ry="11" style="stroke: #A80036; stroke-width: 1.0;"/><path d="M390.9688,946.6406 Q390.3906,946.9375 389.75,947.0781 Q389.1094,947.2344 388.4063,947.2344 Q385.9063,947.2344 384.5781,945.5938 Q383.2656,943.9375 383.2656,940.8125 Q383.2656,937.6875 384.5781,936.0313 Q385.9063,934.375 388.4063,934.375 Q389.1094,934.375 389.75,934.5313 Q390.4063,934.6875 390.9688,934.9844 L390.9688,937.7031 Q390.3438,937.125 389.75,936.8594 Q389.1563,936.5781 388.5313,936.5781 Q387.1875,936.5781 386.5,937.6563 Q385.8125,938.7188 385.8125,940.8125 Q385.8125,942.9063 386.5,943.9844 Q387.1875,945.0469 388.5313,945.0469 Q389.1563,945.0469 389.75,944.7813 Q390.3438,944.5 390.9688,943.9219 L390.9688,946.6406 Z "/><text fill="#000000" font-family="sans-serif" font-size="12" lengthAdjust="spacingAndGlyphs" textLength="67" x="402" y="945.1543">UserPlayer</text><line style="stroke: #A80036; stroke-width: 1.5;" x1="374" x2="471" y1="957" y2="957"/><line style="stroke: #A80036; stroke-width: 1.5;" x1="374" x2="471" y1="965" y2="965"/><!--MD5=[b6dcce5e5ef3c84b0b048d11301373dd]
class Game--><rect fill="#FEFECE" filter="url(#fh7fzdkv42bk7)" height="48" id="Game" style="stroke: #A80036; stroke-width: 1.5;" width="68" x="48.5" y="416"/><ellipse cx="63.5" cy="432" fill="#ADD1B2" rx="11" ry="11" style="stroke: #A80036; stroke-width: 1.0;"/><path d="M66.4688,437.6406 Q65.8906,437.9375 65.25,438.0781 Q64.6094,438.2344 63.9063,438.2344 Q61.4063,438.2344 60.0781,436.5938 Q58.7656,434.9375 58.7656,431.8125 Q58.7656,428.6875 60.0781,427.0313 Q61.4063,425.375 63.9063,425.375 Q64.6094,425.375 65.25,425.5313 Q65.9063,425.6875 66.4688,425.9844 L66.4688,428.7031 Q65.8438,428.125 65.25,427.8594 Q64.6563,427.5781 64.0313,427.5781 Q62.6875,427.5781 62,428.6563 Q61.3125,429.7188 61.3125,431.8125 Q61.3125,433.9063 62,434.9844 Q62.6875,436.0469 64.0313,436.0469 Q64.6563,436.0469 65.25,435.7813 Q65.8438,435.5 66.4688,434.9219 L66.4688,437.6406 Z "/><text fill="#000000" font-family="sans-serif" font-size="12" lengthAdjust="spacingAndGlyphs" textLength="36" x="77.5" y="436.1543">Game</text><line style="stroke: #A80036; stroke-width: 1.5;" x1="49.5" x2="115.5" y1="448" y2="448"/><line style="stroke: #A80036; stroke-width: 1.5;" x1="49.5" x2="115.5" y1="456" y2="456"/><!--MD5=[9563755d011c5cec7ec66dc53565a59e]
class Board--><rect fill="#FEFECE" filter="url(#fh7fzdkv42bk7)" height="48" id="Board" style="stroke: #A80036; stroke-width: 1.5;" width="69" x="136" y="549.5"/><ellipse cx="151" cy="565.5" fill="#ADD1B2" rx="11" ry="11" style="stroke: #A80036; stroke-width: 1.0;"/><path d="M153.9688,571.1406 Q153.3906,571.4375 152.75,571.5781 Q152.1094,571.7344 151.4063,571.7344 Q148.9063,571.7344 147.5781,570.0938 Q146.2656,568.4375 146.2656,565.3125 Q146.2656,562.1875 147.5781,560.5313 Q148.9063,558.875 151.4063,558.875 Q152.1094,558.875 152.75,559.0313 Q153.4063,559.1875 153.9688,559.4844 L153.9688,562.2031 Q153.3438,561.625 152.75,561.3594 Q152.1563,561.0781 151.5313,561.0781 Q150.1875,561.0781 149.5,562.1563 Q148.8125,563.2188 148.8125,565.3125 Q148.8125,567.4063 149.5,568.4844 Q150.1875,569.5469 151.5313,569.5469 Q152.1563,569.5469 152.75,569.2813 Q153.3438,569 153.9688,568.4219 L153.9688,571.1406 Z "/><text fill="#000000" font-family="sans-serif" font-size="12" lengthAdjust="spacingAndGlyphs" textLength="37" x="165" y="569.6543">Board</text><line style="stroke: #A80036; stroke-width: 1.5;" x1="137" x2="204" y1="581.5" y2="581.5"/><line style="stroke: #A80036; stroke-width: 1.5;" x1="137" x2="204" y1="589.5" y2="589.5"/><!--MD5=[dd91eae41778c45e12552e5329e240e8]
class Turn--><rect fill="#FEFECE" filter="url(#fh7fzdkv42bk7)" height="48" id="Turn" style="stroke: #A80036; stroke-width: 1.5;" width="60" x="147.5" y="696"/><ellipse cx="162.5" cy="712" fill="#ADD1B2" rx="11" ry="11" style="stroke: #A80036; stroke-width: 1.0;"/><path d="M165.4688,717.6406 Q164.8906,717.9375 164.25,718.0781 Q163.6094,718.2344 162.9063,718.2344 Q160.4063,718.2344 159.0781,716.5938 Q157.7656,714.9375 157.7656,711.8125 Q157.7656,708.6875 159.0781,707.0313 Q160.4063,705.375 162.9063,705.375 Q163.6094,705.375 164.25,705.5313 Q164.9063,705.6875 165.4688,705.9844 L165.4688,708.7031 Q164.8438,708.125 164.25,707.8594 Q163.6563,707.5781 163.0313,707.5781 Q161.6875,707.5781 161,708.6563 Q160.3125,709.7188 160.3125,711.8125 Q160.3125,713.9063 161,714.9844 Q161.6875,716.0469 163.0313,716.0469 Q163.6563,716.0469 164.25,715.7813 Q164.8438,715.5 165.4688,714.9219 L165.4688,717.6406 Z "/><text fill="#000000" font-family="sans-serif" font-size="12" lengthAdjust="spacingAndGlyphs" textLength="28" x="176.5" y="716.1543">Turn</text><line style="stroke: #A80036; stroke-width: 1.5;" x1="148.5" x2="206.5" y1="728" y2="728"/><line style="stroke: #A80036; stroke-width: 1.5;" x1="148.5" x2="206.5" y1="736" y2="736"/><!--MD5=[ca04c0eda4482e2f74e8c9b82fcb79bf]
link GameView to Game--><path d="M91.69,158.36 C77.29,176.37 64.36,196.64 56.5,218 C32.17,284.16 55.73,368.28 71.27,411.15 " fill="none" id="GameView-&gt;Game" style="stroke: #A80036; stroke-width: 1.0;"/><polygon fill="#A80036" points="73.03,415.92,73.6679,406.0918,71.2995,411.229,66.1623,408.8606,73.03,415.92" style="stroke: #A80036; stroke-width: 1.0;"/><!--MD5=[7df4e8fc8ef15cc8ca9effbcc2622283]
link GameView to TurnView--><path d="M256.67,158.07 C280.57,178.61 306.33,200.76 329.6,220.76 " fill="none" id="GameView-&gt;TurnView" style="stroke: #A80036; stroke-width: 1.0;"/><polygon fill="#A80036" points="333.61,224.21,329.3799,215.3159,329.8137,220.956,324.1735,221.3899,333.61,224.21" style="stroke: #A80036; stroke-width: 1.0;"/><!--MD5=[c2d12ea21a8ed9d7b07c5ed2223bb09d]
link GameView to BoardView--><path d="M170.5,158.07 C170.5,175.98 170.5,195.11 170.5,212.97 " fill="none" id="GameView-&gt;BoardView" style="stroke: #A80036; stroke-width: 1.0;"/><polygon fill="#A80036" points="170.5,217.97,174.5,208.97,170.5,212.97,166.5,208.97,170.5,217.97" style="stroke: #A80036; stroke-width: 1.0;"/><!--MD5=[87ac28f7ff846e55e34c2c863c6ff220]
link BoardView to Board--><path d="M170.5,356.14 C170.5,416.17 170.5,500.63 170.5,544.13 " fill="none" id="BoardView-&gt;Board" style="stroke: #A80036; stroke-width: 1.0;"/><polygon fill="#A80036" points="170.5,549.23,174.5,540.23,170.5,544.23,166.5,540.23,170.5,549.23" style="stroke: #A80036; stroke-width: 1.0;"/><!--MD5=[b90c15517c5612720f6d3b5735a27f0e]
link TurnView to Turn--><path d="M372.83,349.75 C322.69,444.54 228.74,622.13 192.39,690.85 " fill="none" id="TurnView-&gt;Turn" style="stroke: #A80036; stroke-width: 1.0;"/><polygon fill="#A80036" points="189.88,695.61,197.6171,689.5159,192.2129,691.1876,190.5412,685.7834,189.88,695.61" style="stroke: #A80036; stroke-width: 1.0;"/><!--MD5=[e7bf9f9b7aec428ce88b8d05cb32211b]
link Turn to UserPlayer--><path d="M216.1059,750.8041 C216.1059,750.8041 223.39,755.32 226.5,757 C293.69,793.29 336.15,760.48 387.5,817 C410.9,842.75 418.95,882.44 421.57,911.38 " fill="none" id="Turn-UserPlayer" style="stroke: #A80036; stroke-width: 1.0;"/><polygon fill="#A80036" points="422.46,924.62,425.8477,915.3721,422.1249,919.6312,417.8657,915.9084,422.46,924.62" style="stroke: #A80036; stroke-width: 1.0;"/><line style="stroke: #A80036; stroke-width: 1.0;" x1="422.1249" x2="421.59" y1="919.6312" y2="911.655"/><polygon fill="#A80036" points="206.16,744.09,208.8949,750.7624,216.1059,750.8041,213.371,744.1318,206.16,744.09" style="stroke: #A80036; stroke-width: 1.0;"/><text fill="#000000" font-family="sans-serif" font-size="13" lengthAdjust="spacingAndGlyphs" textLength="21" x="398.8909" y="913.9323">0-2</text><!--MD5=[0a06ea45613ad68c38500e7cf6c0aecb]
link Turn to RandomMachinePlayer--><path d="M187.731,755.728 C187.731,755.728 209.27,828.28 220.5,865 C225.23,880.48 230.56,897.54 235.16,912.16 " fill="none" id="Turn-RandomMachinePlayer" style="stroke: #A80036; stroke-width: 1.0;"/><polygon fill="#A80036" points="239.13,924.77,240.232,914.983,237.6233,920.0024,232.6039,917.3937,239.13,924.77" style="stroke: #A80036; stroke-width: 1.0;"/><line style="stroke: #A80036; stroke-width: 1.0;" x1="237.6233" x2="235.225" y1="920.0024" y2="912.37"/><polygon fill="#A80036" points="184.33,744.22,182.1945,751.1076,187.731,755.728,189.8665,748.8403,184.33,744.22" style="stroke: #A80036; stroke-width: 1.0;"/><text fill="#000000" font-family="sans-serif" font-size="13" lengthAdjust="spacingAndGlyphs" textLength="21" x="213.7742" y="914.1189">0-2</text><!--MD5=[b9f1e39ad85d50fe6f3a071a4341c320]
link Game to Turn--><path d="M85.7103,476.0815 C85.7103,476.0815 99.55,574.6 118.5,623 C127.04,644.82 140.5,667.23 152.41,684.91 " fill="none" id="Game-Turn" style="stroke: #A80036; stroke-width: 1.0;"/><polygon fill="#A80036" points="159.95,695.79,158.1145,686.1137,157.1034,691.6794,151.5376,690.6683,159.95,695.79" style="stroke: #A80036; stroke-width: 1.0;"/><line style="stroke: #A80036; stroke-width: 1.0;" x1="157.1034" x2="152.55" y1="691.6794" y2="685.1"/><polygon fill="#A80036" points="84.43,464.15,81.093,470.5425,85.7103,476.0815,89.0473,469.689,84.43,464.15" style="stroke: #A80036; stroke-width: 1.0;"/><!--MD5=[15c8f9ca3aac13d865864b4eb5314ef1]
link Game to Board--><path d="M104.7047,474.1824 C104.7047,474.1824 134.48,518.68 147.43,538.02 " fill="none" id="Game-Board" style="stroke: #A80036; stroke-width: 1.0;"/><polygon fill="#A80036" points="154.83,549.08,153.1481,539.3758,152.0489,544.9248,146.4999,543.8256,154.83,549.08" style="stroke: #A80036; stroke-width: 1.0;"/><line style="stroke: #A80036; stroke-width: 1.0;" x1="152.0489" x2="147.6" y1="544.9248" y2="538.28"/><polygon fill="#A80036" points="98.03,464.21,98.0432,471.4211,104.7047,474.1824,104.6915,466.9713,98.03,464.21" style="stroke: #A80036; stroke-width: 1.0;"/><!--MD5=[ed779b550861d9265ce54ae19c07d8f5]
link TurnView to PlayerView--><path d="M405.5,349.73 C405.5,400.03 405.5,470.36 405.5,518.46 " fill="none" id="TurnView-&gt;PlayerView" style="stroke: #A80036; stroke-width: 1.0; stroke-dasharray: 7.0,7.0;"/><polygon fill="#A80036" points="405.5,523.63,409.5,514.63,405.5,518.63,401.5,514.63,405.5,523.63" style="stroke: #A80036; stroke-width: 1.0;"/><text fill="#000000" font-family="sans-serif" font-size="13" lengthAdjust="spacingAndGlyphs" textLength="8" x="396.9625" y="512.982">2</text><!--MD5=[3c587cbf4be9dbf34cf594a9bef1205b]
reverse link PlayerView to UserPlayerView--><path d="M445.2,640.43 C453.95,654.98 462.92,669.87 470.66,682.72 " fill="none" id="PlayerView&lt;-UserPlayerView" style="stroke: #A80036; stroke-width: 1.0;"/><polygon fill="none" points="439.03,643.76,434.71,623.02,451.02,636.54,439.03,643.76" style="stroke: #A80036; stroke-width: 1.0;"/><!--MD5=[ba8530eccc4b223b8ea5d55a1f2be3ba]
reverse link PlayerView to MachinePlayerView--><path d="M365.8,640.43 C357.05,654.98 348.08,669.87 340.34,682.72 " fill="none" id="PlayerView&lt;-MachinePlayerView" style="stroke: #A80036; stroke-width: 1.0;"/><polygon fill="none" points="359.98,636.54,376.29,623.02,371.97,643.76,359.98,636.54" style="stroke: #A80036; stroke-width: 1.0;"/><!--MD5=[83e73cc634b6a0fa1d7bbb56c08baf04]
reverse link Player to RandomMachinePlayer--><path d="M302.37,880.7 C290.13,895.45 276.56,911.79 265.86,924.68 " fill="none" id="Player&lt;-RandomMachinePlayer" style="stroke: #A80036; stroke-width: 1.0;"/><polygon fill="none" points="297.24,875.92,315.41,865,308.02,884.86,297.24,875.92" style="stroke: #A80036; stroke-width: 1.0;"/><!--MD5=[5f3eff46017ea40d2ca7f35522a8d7fb]
reverse link Player to UserPlayer--><path d="M366.63,880.7 C378.87,895.45 392.44,911.79 403.14,924.68 " fill="none" id="Player&lt;-UserPlayer" style="stroke: #A80036; stroke-width: 1.0;"/><polygon fill="none" points="360.98,884.86,353.59,865,371.76,875.92,360.98,884.86" style="stroke: #A80036; stroke-width: 1.0;"/><!--MD5=[f695d238f6ca42d482d901ed1bcdf0d9]
link MachinePlayerView to RandomMachinePlayer--><path d="M304.04,757.2 C297.13,775.06 288.98,797.02 282.5,817 C271.18,851.92 260.32,892.79 253.54,919.48 " fill="none" id="MachinePlayerView-&gt;RandomMachinePlayer" style="stroke: #A80036; stroke-width: 1.0;"/><polygon fill="#A80036" points="252.24,924.62,258.3248,916.8757,253.4661,919.7727,250.5691,914.9139,252.24,924.62" style="stroke: #A80036; stroke-width: 1.0;"/><!--MD5=[d6557f2efc94e7918d805d6325298755]
link UserPlayerView to UserPlayer--><path d="M481.54,757.12 C472.68,786.26 459.86,828.29 448.5,865 C442.84,883.3 436.4,903.85 431.35,919.92 " fill="none" id="UserPlayerView-&gt;UserPlayer" style="stroke: #A80036; stroke-width: 1.0;"/><polygon fill="#A80036" points="429.83,924.76,436.345,917.3739,431.3295,919.9901,428.7132,914.9747,429.83,924.76" style="stroke: #A80036; stroke-width: 1.0;"/><!--MD5=[b77739e9856f9e1545b35e4dd61c9f13]
@startuml
class GameView{
-game
-turnView
-boardView
askPlayers()
-createNumOfPlayerButton(buttonText, numOfPlayers)
-startNewGame(numOfPlayers)
-dropToken(column)
-drawPlayAgainDialog()
}
class TurnView{
-turn
constructor(turn)
dropToken(column)
visitUserPlayer(userPlayer)
visitMachinePlayer(machinePlayer)
drawTurnMessage()
}
class BoardView{
-board
constructor(board)
-build()
setControlsCallback(callback)
removeControls()
dropToken()
resultActions()
}
class MachinePlayerView{
constructor(player)
getColumn()
}
abstract class PlayerView{
-player
constructor(player)
dropToken(column)
getColumn()
}

class UserPlayerView{
constructor(player)
getColumn(column)
}
Abstract    class Player
class RandomMachinePlayer
class UserPlayer

GameView - - -> Game
GameView - -> TurnView
GameView -> BoardView
BoardView - -> Board
TurnView - -> Turn
Turn *- - -> "0-2" UserPlayer
Turn *- -> "0-2" RandomMachinePlayer
Game *- -> Turn
Game *- -> Board
TurnView -.-> "2" PlayerView
PlayerView <|- - UserPlayerView
PlayerView <|- - MachinePlayerView
Player <|- - RandomMachinePlayer
Player <|- - UserPlayer
MachinePlayerView - - -> RandomMachinePlayer
UserPlayerView - - -> UserPlayer



@enduml

PlantUML version 1.2020.02(Sun Mar 01 06:22:07 VET 2020)
(GPL source distribution)
Java Runtime: OpenJDK Runtime Environment
JVM: OpenJDK 64-Bit Server VM
Java Version: 11.0.17+8-post-Ubuntu-1ubuntu222.04
Operating System: Linux
Default Encoding: UTF-8
Language: en
Country: US
--></g></svg>